<mxfile host="app.diagrams.net" modified="2022-03-01T09:44:58.285Z" agent="5.0 (Windows NT 10.0; Win64; x64) AppleWebKit/537.36 (KHTML, like Gecko) Chrome/98.0.4758.102 Safari/537.36" etag="WbjaXvsynPhxJ89mHH4_" version="16.6.4" type="github">
  <diagram id="R2lEEEUBdFMjLlhIrx00" name="Page-1">
    <mxGraphModel dx="854" dy="397" grid="1" gridSize="10" guides="1" tooltips="1" connect="1" arrows="1" fold="1" page="1" pageScale="1" pageWidth="3300" pageHeight="2339" math="0" shadow="0" extFonts="Permanent Marker^https://fonts.googleapis.com/css?family=Permanent+Marker">
      <root>
        <mxCell id="0" />
        <mxCell id="1" parent="0" />
        <mxCell id="gNVXbrv3SQmsqr1-LKS6-169" value="" style="group" parent="1" vertex="1" connectable="0">
          <mxGeometry x="70" y="70" width="3190.0062711864402" height="2215" as="geometry" />
        </mxCell>
        <mxCell id="gNVXbrv3SQmsqr1-LKS6-168" value="" style="group" parent="gNVXbrv3SQmsqr1-LKS6-169" vertex="1" connectable="0">
          <mxGeometry x="459.57627118644064" width="2730.43" height="2215" as="geometry" />
        </mxCell>
        <mxCell id="g0dB4fThE9D3y6vZpoi5-1" value="quiz" style="shape=table;startSize=30;container=1;collapsible=1;childLayout=tableLayout;fixedRows=1;rowLines=0;fontStyle=1;align=center;resizeLast=1;" parent="gNVXbrv3SQmsqr1-LKS6-168" vertex="1">
          <mxGeometry x="1581.48" y="80" width="243.31" height="80" as="geometry" />
        </mxCell>
        <mxCell id="g0dB4fThE9D3y6vZpoi5-2" value="" style="shape=tableRow;horizontal=0;startSize=0;swimlaneHead=0;swimlaneBody=0;fillColor=none;collapsible=0;dropTarget=0;points=[[0,0.5],[1,0.5]];portConstraint=eastwest;top=0;left=0;right=0;bottom=1;" parent="g0dB4fThE9D3y6vZpoi5-1" vertex="1">
          <mxGeometry y="30" width="243.31" height="30" as="geometry" />
        </mxCell>
        <mxCell id="g0dB4fThE9D3y6vZpoi5-3" value="PK" style="shape=partialRectangle;connectable=0;fillColor=none;top=0;left=0;bottom=0;right=0;fontStyle=1;overflow=hidden;" parent="g0dB4fThE9D3y6vZpoi5-2" vertex="1">
          <mxGeometry width="30" height="30" as="geometry">
            <mxRectangle width="30" height="30" as="alternateBounds" />
          </mxGeometry>
        </mxCell>
        <mxCell id="g0dB4fThE9D3y6vZpoi5-4" value="id" style="shape=partialRectangle;connectable=0;fillColor=none;top=0;left=0;bottom=0;right=0;align=left;spacingLeft=6;fontStyle=5;overflow=hidden;" parent="g0dB4fThE9D3y6vZpoi5-2" vertex="1">
          <mxGeometry x="30" width="213.31" height="30" as="geometry">
            <mxRectangle width="213.31" height="30" as="alternateBounds" />
          </mxGeometry>
        </mxCell>
        <mxCell id="g0dB4fThE9D3y6vZpoi5-5" value="" style="shape=tableRow;horizontal=0;startSize=0;swimlaneHead=0;swimlaneBody=0;fillColor=none;collapsible=0;dropTarget=0;points=[[0,0.5],[1,0.5]];portConstraint=eastwest;top=0;left=0;right=0;bottom=0;" parent="g0dB4fThE9D3y6vZpoi5-1" vertex="1">
          <mxGeometry y="60" width="243.31" height="20" as="geometry" />
        </mxCell>
        <mxCell id="g0dB4fThE9D3y6vZpoi5-6" value="FK" style="shape=partialRectangle;connectable=0;fillColor=none;top=0;left=0;bottom=0;right=0;editable=1;overflow=hidden;" parent="g0dB4fThE9D3y6vZpoi5-5" vertex="1">
          <mxGeometry width="30" height="20" as="geometry">
            <mxRectangle width="30" height="20" as="alternateBounds" />
          </mxGeometry>
        </mxCell>
        <mxCell id="g0dB4fThE9D3y6vZpoi5-7" value="subject_id" style="shape=partialRectangle;connectable=0;fillColor=none;top=0;left=0;bottom=0;right=0;align=left;spacingLeft=6;overflow=hidden;" parent="g0dB4fThE9D3y6vZpoi5-5" vertex="1">
          <mxGeometry x="30" width="213.31" height="20" as="geometry">
            <mxRectangle width="213.31" height="20" as="alternateBounds" />
          </mxGeometry>
        </mxCell>
        <mxCell id="g0dB4fThE9D3y6vZpoi5-15" value="quiz_variant" style="shape=table;startSize=30;container=1;collapsible=1;childLayout=tableLayout;fixedRows=1;rowLines=0;fontStyle=1;align=center;resizeLast=1;" parent="gNVXbrv3SQmsqr1-LKS6-168" vertex="1">
          <mxGeometry x="2378.9" y="80" width="243.31" height="150" as="geometry" />
        </mxCell>
        <mxCell id="g0dB4fThE9D3y6vZpoi5-16" value="" style="shape=tableRow;horizontal=0;startSize=0;swimlaneHead=0;swimlaneBody=0;fillColor=none;collapsible=0;dropTarget=0;points=[[0,0.5],[1,0.5]];portConstraint=eastwest;top=0;left=0;right=0;bottom=1;" parent="g0dB4fThE9D3y6vZpoi5-15" vertex="1">
          <mxGeometry y="30" width="243.31" height="30" as="geometry" />
        </mxCell>
        <mxCell id="g0dB4fThE9D3y6vZpoi5-17" value="PK" style="shape=partialRectangle;connectable=0;fillColor=none;top=0;left=0;bottom=0;right=0;fontStyle=1;overflow=hidden;" parent="g0dB4fThE9D3y6vZpoi5-16" vertex="1">
          <mxGeometry width="30" height="30" as="geometry">
            <mxRectangle width="30" height="30" as="alternateBounds" />
          </mxGeometry>
        </mxCell>
        <mxCell id="g0dB4fThE9D3y6vZpoi5-18" value="id" style="shape=partialRectangle;connectable=0;fillColor=none;top=0;left=0;bottom=0;right=0;align=left;spacingLeft=6;fontStyle=5;overflow=hidden;" parent="g0dB4fThE9D3y6vZpoi5-16" vertex="1">
          <mxGeometry x="30" width="213.31" height="30" as="geometry">
            <mxRectangle width="213.31" height="30" as="alternateBounds" />
          </mxGeometry>
        </mxCell>
        <mxCell id="g0dB4fThE9D3y6vZpoi5-19" value="" style="shape=tableRow;horizontal=0;startSize=0;swimlaneHead=0;swimlaneBody=0;fillColor=none;collapsible=0;dropTarget=0;points=[[0,0.5],[1,0.5]];portConstraint=eastwest;top=0;left=0;right=0;bottom=0;" parent="g0dB4fThE9D3y6vZpoi5-15" vertex="1">
          <mxGeometry y="60" width="243.31" height="30" as="geometry" />
        </mxCell>
        <mxCell id="g0dB4fThE9D3y6vZpoi5-20" value="" style="shape=partialRectangle;connectable=0;fillColor=none;top=0;left=0;bottom=0;right=0;editable=1;overflow=hidden;" parent="g0dB4fThE9D3y6vZpoi5-19" vertex="1">
          <mxGeometry width="30" height="30" as="geometry">
            <mxRectangle width="30" height="30" as="alternateBounds" />
          </mxGeometry>
        </mxCell>
        <mxCell id="g0dB4fThE9D3y6vZpoi5-21" value="quiz_variant_text" style="shape=partialRectangle;connectable=0;fillColor=none;top=0;left=0;bottom=0;right=0;align=left;spacingLeft=6;overflow=hidden;" parent="g0dB4fThE9D3y6vZpoi5-19" vertex="1">
          <mxGeometry x="30" width="213.31" height="30" as="geometry">
            <mxRectangle width="213.31" height="30" as="alternateBounds" />
          </mxGeometry>
        </mxCell>
        <mxCell id="g0dB4fThE9D3y6vZpoi5-22" value="" style="shape=tableRow;horizontal=0;startSize=0;swimlaneHead=0;swimlaneBody=0;fillColor=none;collapsible=0;dropTarget=0;points=[[0,0.5],[1,0.5]];portConstraint=eastwest;top=0;left=0;right=0;bottom=0;" parent="g0dB4fThE9D3y6vZpoi5-15" vertex="1">
          <mxGeometry y="90" width="243.31" height="30" as="geometry" />
        </mxCell>
        <mxCell id="g0dB4fThE9D3y6vZpoi5-23" value="" style="shape=partialRectangle;connectable=0;fillColor=none;top=0;left=0;bottom=0;right=0;editable=1;overflow=hidden;" parent="g0dB4fThE9D3y6vZpoi5-22" vertex="1">
          <mxGeometry width="30" height="30" as="geometry">
            <mxRectangle width="30" height="30" as="alternateBounds" />
          </mxGeometry>
        </mxCell>
        <mxCell id="g0dB4fThE9D3y6vZpoi5-24" value="is_correct" style="shape=partialRectangle;connectable=0;fillColor=none;top=0;left=0;bottom=0;right=0;align=left;spacingLeft=6;overflow=hidden;" parent="g0dB4fThE9D3y6vZpoi5-22" vertex="1">
          <mxGeometry x="30" width="213.31" height="30" as="geometry">
            <mxRectangle width="213.31" height="30" as="alternateBounds" />
          </mxGeometry>
        </mxCell>
        <mxCell id="Uq_rD0HiTpvaq6nW2G_J-8" value="" style="shape=tableRow;horizontal=0;startSize=0;swimlaneHead=0;swimlaneBody=0;fillColor=none;collapsible=0;dropTarget=0;points=[[0,0.5],[1,0.5]];portConstraint=eastwest;top=0;left=0;right=0;bottom=0;" vertex="1" parent="g0dB4fThE9D3y6vZpoi5-15">
          <mxGeometry y="120" width="243.31" height="30" as="geometry" />
        </mxCell>
        <mxCell id="Uq_rD0HiTpvaq6nW2G_J-9" value="" style="shape=partialRectangle;connectable=0;fillColor=none;top=0;left=0;bottom=0;right=0;editable=1;overflow=hidden;" vertex="1" parent="Uq_rD0HiTpvaq6nW2G_J-8">
          <mxGeometry width="30" height="30" as="geometry">
            <mxRectangle width="30" height="30" as="alternateBounds" />
          </mxGeometry>
        </mxCell>
        <mxCell id="Uq_rD0HiTpvaq6nW2G_J-10" value="question_id" style="shape=partialRectangle;connectable=0;fillColor=none;top=0;left=0;bottom=0;right=0;align=left;spacingLeft=6;overflow=hidden;" vertex="1" parent="Uq_rD0HiTpvaq6nW2G_J-8">
          <mxGeometry x="30" width="213.31" height="30" as="geometry">
            <mxRectangle width="213.31" height="30" as="alternateBounds" />
          </mxGeometry>
        </mxCell>
        <mxCell id="g0dB4fThE9D3y6vZpoi5-28" value="question" style="shape=table;startSize=30;container=1;collapsible=1;childLayout=tableLayout;fixedRows=1;rowLines=0;fontStyle=1;align=center;resizeLast=1;" parent="gNVXbrv3SQmsqr1-LKS6-168" vertex="1">
          <mxGeometry x="2000.42" y="80" width="243.31" height="120" as="geometry" />
        </mxCell>
        <mxCell id="g0dB4fThE9D3y6vZpoi5-29" value="" style="shape=tableRow;horizontal=0;startSize=0;swimlaneHead=0;swimlaneBody=0;fillColor=none;collapsible=0;dropTarget=0;points=[[0,0.5],[1,0.5]];portConstraint=eastwest;top=0;left=0;right=0;bottom=1;" parent="g0dB4fThE9D3y6vZpoi5-28" vertex="1">
          <mxGeometry y="30" width="243.31" height="30" as="geometry" />
        </mxCell>
        <mxCell id="g0dB4fThE9D3y6vZpoi5-30" value="PK" style="shape=partialRectangle;connectable=0;fillColor=none;top=0;left=0;bottom=0;right=0;fontStyle=1;overflow=hidden;" parent="g0dB4fThE9D3y6vZpoi5-29" vertex="1">
          <mxGeometry width="30" height="30" as="geometry">
            <mxRectangle width="30" height="30" as="alternateBounds" />
          </mxGeometry>
        </mxCell>
        <mxCell id="g0dB4fThE9D3y6vZpoi5-31" value="id" style="shape=partialRectangle;connectable=0;fillColor=none;top=0;left=0;bottom=0;right=0;align=left;spacingLeft=6;fontStyle=5;overflow=hidden;" parent="g0dB4fThE9D3y6vZpoi5-29" vertex="1">
          <mxGeometry x="30" width="213.31" height="30" as="geometry">
            <mxRectangle width="213.31" height="30" as="alternateBounds" />
          </mxGeometry>
        </mxCell>
        <mxCell id="g0dB4fThE9D3y6vZpoi5-32" value="" style="shape=tableRow;horizontal=0;startSize=0;swimlaneHead=0;swimlaneBody=0;fillColor=none;collapsible=0;dropTarget=0;points=[[0,0.5],[1,0.5]];portConstraint=eastwest;top=0;left=0;right=0;bottom=0;" parent="g0dB4fThE9D3y6vZpoi5-28" vertex="1">
          <mxGeometry y="60" width="243.31" height="30" as="geometry" />
        </mxCell>
        <mxCell id="g0dB4fThE9D3y6vZpoi5-33" value="" style="shape=partialRectangle;connectable=0;fillColor=none;top=0;left=0;bottom=0;right=0;editable=1;overflow=hidden;" parent="g0dB4fThE9D3y6vZpoi5-32" vertex="1">
          <mxGeometry width="30" height="30" as="geometry">
            <mxRectangle width="30" height="30" as="alternateBounds" />
          </mxGeometry>
        </mxCell>
        <mxCell id="g0dB4fThE9D3y6vZpoi5-34" value="question_text" style="shape=partialRectangle;connectable=0;fillColor=none;top=0;left=0;bottom=0;right=0;align=left;spacingLeft=6;overflow=hidden;" parent="g0dB4fThE9D3y6vZpoi5-32" vertex="1">
          <mxGeometry x="30" width="213.31" height="30" as="geometry">
            <mxRectangle width="213.31" height="30" as="alternateBounds" />
          </mxGeometry>
        </mxCell>
        <mxCell id="Uq_rD0HiTpvaq6nW2G_J-1" value="" style="shape=tableRow;horizontal=0;startSize=0;swimlaneHead=0;swimlaneBody=0;fillColor=none;collapsible=0;dropTarget=0;points=[[0,0.5],[1,0.5]];portConstraint=eastwest;top=0;left=0;right=0;bottom=0;" vertex="1" parent="g0dB4fThE9D3y6vZpoi5-28">
          <mxGeometry y="90" width="243.31" height="30" as="geometry" />
        </mxCell>
        <mxCell id="Uq_rD0HiTpvaq6nW2G_J-2" value="" style="shape=partialRectangle;connectable=0;fillColor=none;top=0;left=0;bottom=0;right=0;editable=1;overflow=hidden;" vertex="1" parent="Uq_rD0HiTpvaq6nW2G_J-1">
          <mxGeometry width="30" height="30" as="geometry">
            <mxRectangle width="30" height="30" as="alternateBounds" />
          </mxGeometry>
        </mxCell>
        <mxCell id="Uq_rD0HiTpvaq6nW2G_J-3" value="quiz_id" style="shape=partialRectangle;connectable=0;fillColor=none;top=0;left=0;bottom=0;right=0;align=left;spacingLeft=6;overflow=hidden;" vertex="1" parent="Uq_rD0HiTpvaq6nW2G_J-1">
          <mxGeometry x="30" width="213.31" height="30" as="geometry">
            <mxRectangle width="213.31" height="30" as="alternateBounds" />
          </mxGeometry>
        </mxCell>
        <mxCell id="g0dB4fThE9D3y6vZpoi5-41" value="trash" style="shape=table;startSize=30;container=1;collapsible=1;childLayout=tableLayout;fixedRows=1;rowLines=0;fontStyle=1;align=center;resizeLast=1;" parent="gNVXbrv3SQmsqr1-LKS6-168" vertex="1">
          <mxGeometry x="13.52" y="572.7" width="236.48" height="157.3" as="geometry" />
        </mxCell>
        <mxCell id="g0dB4fThE9D3y6vZpoi5-42" value="" style="shape=tableRow;horizontal=0;startSize=0;swimlaneHead=0;swimlaneBody=0;fillColor=none;collapsible=0;dropTarget=0;points=[[0,0.5],[1,0.5]];portConstraint=eastwest;top=0;left=0;right=0;bottom=1;" parent="g0dB4fThE9D3y6vZpoi5-41" vertex="1">
          <mxGeometry y="30" width="236.48" height="30" as="geometry" />
        </mxCell>
        <mxCell id="g0dB4fThE9D3y6vZpoi5-43" value="PK" style="shape=partialRectangle;connectable=0;fillColor=none;top=0;left=0;bottom=0;right=0;fontStyle=1;overflow=hidden;" parent="g0dB4fThE9D3y6vZpoi5-42" vertex="1">
          <mxGeometry width="30" height="30" as="geometry">
            <mxRectangle width="30" height="30" as="alternateBounds" />
          </mxGeometry>
        </mxCell>
        <mxCell id="g0dB4fThE9D3y6vZpoi5-44" value="id" style="shape=partialRectangle;connectable=0;fillColor=none;top=0;left=0;bottom=0;right=0;align=left;spacingLeft=6;fontStyle=5;overflow=hidden;" parent="g0dB4fThE9D3y6vZpoi5-42" vertex="1">
          <mxGeometry x="30" width="206.48" height="30" as="geometry">
            <mxRectangle width="206.48" height="30" as="alternateBounds" />
          </mxGeometry>
        </mxCell>
        <mxCell id="g0dB4fThE9D3y6vZpoi5-45" value="" style="shape=tableRow;horizontal=0;startSize=0;swimlaneHead=0;swimlaneBody=0;fillColor=none;collapsible=0;dropTarget=0;points=[[0,0.5],[1,0.5]];portConstraint=eastwest;top=0;left=0;right=0;bottom=0;" parent="g0dB4fThE9D3y6vZpoi5-41" vertex="1">
          <mxGeometry y="60" width="236.48" height="30" as="geometry" />
        </mxCell>
        <mxCell id="g0dB4fThE9D3y6vZpoi5-46" value="" style="shape=partialRectangle;connectable=0;fillColor=none;top=0;left=0;bottom=0;right=0;editable=1;overflow=hidden;" parent="g0dB4fThE9D3y6vZpoi5-45" vertex="1">
          <mxGeometry width="30" height="30" as="geometry">
            <mxRectangle width="30" height="30" as="alternateBounds" />
          </mxGeometry>
        </mxCell>
        <mxCell id="g0dB4fThE9D3y6vZpoi5-47" value="deleted_id" style="shape=partialRectangle;connectable=0;fillColor=none;top=0;left=0;bottom=0;right=0;align=left;spacingLeft=6;overflow=hidden;" parent="g0dB4fThE9D3y6vZpoi5-45" vertex="1">
          <mxGeometry x="30" width="206.48" height="30" as="geometry">
            <mxRectangle width="206.48" height="30" as="alternateBounds" />
          </mxGeometry>
        </mxCell>
        <mxCell id="g0dB4fThE9D3y6vZpoi5-48" value="" style="shape=tableRow;horizontal=0;startSize=0;swimlaneHead=0;swimlaneBody=0;fillColor=none;collapsible=0;dropTarget=0;points=[[0,0.5],[1,0.5]];portConstraint=eastwest;top=0;left=0;right=0;bottom=0;" parent="g0dB4fThE9D3y6vZpoi5-41" vertex="1">
          <mxGeometry y="90" width="236.48" height="30" as="geometry" />
        </mxCell>
        <mxCell id="g0dB4fThE9D3y6vZpoi5-49" value="" style="shape=partialRectangle;connectable=0;fillColor=none;top=0;left=0;bottom=0;right=0;editable=1;overflow=hidden;" parent="g0dB4fThE9D3y6vZpoi5-48" vertex="1">
          <mxGeometry width="30" height="30" as="geometry">
            <mxRectangle width="30" height="30" as="alternateBounds" />
          </mxGeometry>
        </mxCell>
        <mxCell id="g0dB4fThE9D3y6vZpoi5-50" value="delete_date" style="shape=partialRectangle;connectable=0;fillColor=none;top=0;left=0;bottom=0;right=0;align=left;spacingLeft=6;overflow=hidden;" parent="g0dB4fThE9D3y6vZpoi5-48" vertex="1">
          <mxGeometry x="30" width="206.48" height="30" as="geometry">
            <mxRectangle width="206.48" height="30" as="alternateBounds" />
          </mxGeometry>
        </mxCell>
        <mxCell id="g0dB4fThE9D3y6vZpoi5-51" value="" style="shape=tableRow;horizontal=0;startSize=0;swimlaneHead=0;swimlaneBody=0;fillColor=none;collapsible=0;dropTarget=0;points=[[0,0.5],[1,0.5]];portConstraint=eastwest;top=0;left=0;right=0;bottom=0;" parent="g0dB4fThE9D3y6vZpoi5-41" vertex="1">
          <mxGeometry y="120" width="236.48" height="30" as="geometry" />
        </mxCell>
        <mxCell id="g0dB4fThE9D3y6vZpoi5-52" value="FK" style="shape=partialRectangle;connectable=0;fillColor=none;top=0;left=0;bottom=0;right=0;editable=1;overflow=hidden;" parent="g0dB4fThE9D3y6vZpoi5-51" vertex="1">
          <mxGeometry width="30" height="30" as="geometry">
            <mxRectangle width="30" height="30" as="alternateBounds" />
          </mxGeometry>
        </mxCell>
        <mxCell id="g0dB4fThE9D3y6vZpoi5-53" value="group_id" style="shape=partialRectangle;connectable=0;fillColor=none;top=0;left=0;bottom=0;right=0;align=left;spacingLeft=6;overflow=hidden;" parent="g0dB4fThE9D3y6vZpoi5-51" vertex="1">
          <mxGeometry x="30" width="206.48" height="30" as="geometry">
            <mxRectangle width="206.48" height="30" as="alternateBounds" />
          </mxGeometry>
        </mxCell>
        <mxCell id="2jKcjm-qkLe9Er315lRe-52" value="metodical_materials_type" style="shape=table;startSize=30;container=1;collapsible=1;childLayout=tableLayout;fixedRows=1;rowLines=0;fontStyle=1;align=center;resizeLast=1;" parent="gNVXbrv3SQmsqr1-LKS6-168" vertex="1">
          <mxGeometry x="2108.64" y="1027.49" width="243.31" height="92.51" as="geometry" />
        </mxCell>
        <mxCell id="2jKcjm-qkLe9Er315lRe-53" value="" style="shape=tableRow;horizontal=0;startSize=0;swimlaneHead=0;swimlaneBody=0;fillColor=none;collapsible=0;dropTarget=0;points=[[0,0.5],[1,0.5]];portConstraint=eastwest;top=0;left=0;right=0;bottom=1;" parent="2jKcjm-qkLe9Er315lRe-52" vertex="1">
          <mxGeometry y="30" width="243.31" height="30" as="geometry" />
        </mxCell>
        <mxCell id="2jKcjm-qkLe9Er315lRe-54" value="PK" style="shape=partialRectangle;connectable=0;fillColor=none;top=0;left=0;bottom=0;right=0;fontStyle=1;overflow=hidden;" parent="2jKcjm-qkLe9Er315lRe-53" vertex="1">
          <mxGeometry width="30" height="30" as="geometry">
            <mxRectangle width="30" height="30" as="alternateBounds" />
          </mxGeometry>
        </mxCell>
        <mxCell id="2jKcjm-qkLe9Er315lRe-55" value="id" style="shape=partialRectangle;connectable=0;fillColor=none;top=0;left=0;bottom=0;right=0;align=left;spacingLeft=6;fontStyle=5;overflow=hidden;" parent="2jKcjm-qkLe9Er315lRe-53" vertex="1">
          <mxGeometry x="30" width="213.31" height="30" as="geometry">
            <mxRectangle width="213.31" height="30" as="alternateBounds" />
          </mxGeometry>
        </mxCell>
        <mxCell id="2jKcjm-qkLe9Er315lRe-56" value="" style="shape=tableRow;horizontal=0;startSize=0;swimlaneHead=0;swimlaneBody=0;fillColor=none;collapsible=0;dropTarget=0;points=[[0,0.5],[1,0.5]];portConstraint=eastwest;top=0;left=0;right=0;bottom=0;" parent="2jKcjm-qkLe9Er315lRe-52" vertex="1">
          <mxGeometry y="60" width="243.31" height="30" as="geometry" />
        </mxCell>
        <mxCell id="2jKcjm-qkLe9Er315lRe-57" value="" style="shape=partialRectangle;connectable=0;fillColor=none;top=0;left=0;bottom=0;right=0;editable=1;overflow=hidden;" parent="2jKcjm-qkLe9Er315lRe-56" vertex="1">
          <mxGeometry width="30" height="30" as="geometry">
            <mxRectangle width="30" height="30" as="alternateBounds" />
          </mxGeometry>
        </mxCell>
        <mxCell id="2jKcjm-qkLe9Er315lRe-58" value="type_name" style="shape=partialRectangle;connectable=0;fillColor=none;top=0;left=0;bottom=0;right=0;align=left;spacingLeft=6;overflow=hidden;" parent="2jKcjm-qkLe9Er315lRe-56" vertex="1">
          <mxGeometry x="30" width="213.31" height="30" as="geometry">
            <mxRectangle width="213.31" height="30" as="alternateBounds" />
          </mxGeometry>
        </mxCell>
        <mxCell id="g0dB4fThE9D3y6vZpoi5-67" value="event_priority" style="shape=table;startSize=20;container=1;collapsible=1;childLayout=tableLayout;fixedRows=1;rowLines=0;fontStyle=1;align=center;resizeLast=1;" parent="gNVXbrv3SQmsqr1-LKS6-168" vertex="1">
          <mxGeometry x="540.68" y="387.41" width="249.32" height="152.59" as="geometry" />
        </mxCell>
        <mxCell id="g0dB4fThE9D3y6vZpoi5-68" value="" style="shape=tableRow;horizontal=0;startSize=0;swimlaneHead=0;swimlaneBody=0;fillColor=none;collapsible=0;dropTarget=0;points=[[0,0.5],[1,0.5]];portConstraint=eastwest;top=0;left=0;right=0;bottom=1;" parent="g0dB4fThE9D3y6vZpoi5-67" vertex="1">
          <mxGeometry y="20" width="249.32" height="30" as="geometry" />
        </mxCell>
        <mxCell id="g0dB4fThE9D3y6vZpoi5-69" value="PK" style="shape=partialRectangle;connectable=0;fillColor=none;top=0;left=0;bottom=0;right=0;fontStyle=1;overflow=hidden;" parent="g0dB4fThE9D3y6vZpoi5-68" vertex="1">
          <mxGeometry width="30" height="30" as="geometry">
            <mxRectangle width="30" height="30" as="alternateBounds" />
          </mxGeometry>
        </mxCell>
        <mxCell id="g0dB4fThE9D3y6vZpoi5-70" value="id" style="shape=partialRectangle;connectable=0;fillColor=none;top=0;left=0;bottom=0;right=0;align=left;spacingLeft=6;fontStyle=5;overflow=hidden;" parent="g0dB4fThE9D3y6vZpoi5-68" vertex="1">
          <mxGeometry x="30" width="219.32" height="30" as="geometry">
            <mxRectangle width="219.32" height="30" as="alternateBounds" />
          </mxGeometry>
        </mxCell>
        <mxCell id="g0dB4fThE9D3y6vZpoi5-71" value="" style="shape=tableRow;horizontal=0;startSize=0;swimlaneHead=0;swimlaneBody=0;fillColor=none;collapsible=0;dropTarget=0;points=[[0,0.5],[1,0.5]];portConstraint=eastwest;top=0;left=0;right=0;bottom=0;" parent="g0dB4fThE9D3y6vZpoi5-67" vertex="1">
          <mxGeometry y="50" width="249.32" height="30" as="geometry" />
        </mxCell>
        <mxCell id="g0dB4fThE9D3y6vZpoi5-72" value="" style="shape=partialRectangle;connectable=0;fillColor=none;top=0;left=0;bottom=0;right=0;editable=1;overflow=hidden;" parent="g0dB4fThE9D3y6vZpoi5-71" vertex="1">
          <mxGeometry width="30" height="30" as="geometry">
            <mxRectangle width="30" height="30" as="alternateBounds" />
          </mxGeometry>
        </mxCell>
        <mxCell id="g0dB4fThE9D3y6vZpoi5-73" value="priority" style="shape=partialRectangle;connectable=0;fillColor=none;top=0;left=0;bottom=0;right=0;align=left;spacingLeft=6;overflow=hidden;" parent="g0dB4fThE9D3y6vZpoi5-71" vertex="1">
          <mxGeometry x="30" width="219.32" height="30" as="geometry">
            <mxRectangle width="219.32" height="30" as="alternateBounds" />
          </mxGeometry>
        </mxCell>
        <mxCell id="g0dB4fThE9D3y6vZpoi5-74" value="" style="shape=tableRow;horizontal=0;startSize=0;swimlaneHead=0;swimlaneBody=0;fillColor=none;collapsible=0;dropTarget=0;points=[[0,0.5],[1,0.5]];portConstraint=eastwest;top=0;left=0;right=0;bottom=0;" parent="g0dB4fThE9D3y6vZpoi5-67" vertex="1">
          <mxGeometry y="80" width="249.32" height="30" as="geometry" />
        </mxCell>
        <mxCell id="g0dB4fThE9D3y6vZpoi5-75" value="" style="shape=partialRectangle;connectable=0;fillColor=none;top=0;left=0;bottom=0;right=0;editable=1;overflow=hidden;" parent="g0dB4fThE9D3y6vZpoi5-74" vertex="1">
          <mxGeometry width="30" height="30" as="geometry">
            <mxRectangle width="30" height="30" as="alternateBounds" />
          </mxGeometry>
        </mxCell>
        <mxCell id="g0dB4fThE9D3y6vZpoi5-76" value="description" style="shape=partialRectangle;connectable=0;fillColor=none;top=0;left=0;bottom=0;right=0;align=left;spacingLeft=6;overflow=hidden;" parent="g0dB4fThE9D3y6vZpoi5-74" vertex="1">
          <mxGeometry x="30" width="219.32" height="30" as="geometry">
            <mxRectangle width="219.32" height="30" as="alternateBounds" />
          </mxGeometry>
        </mxCell>
        <mxCell id="g0dB4fThE9D3y6vZpoi5-77" value="" style="shape=tableRow;horizontal=0;startSize=0;swimlaneHead=0;swimlaneBody=0;fillColor=none;collapsible=0;dropTarget=0;points=[[0,0.5],[1,0.5]];portConstraint=eastwest;top=0;left=0;right=0;bottom=0;" parent="g0dB4fThE9D3y6vZpoi5-67" vertex="1">
          <mxGeometry y="110" width="249.32" height="30" as="geometry" />
        </mxCell>
        <mxCell id="g0dB4fThE9D3y6vZpoi5-78" value="" style="shape=partialRectangle;connectable=0;fillColor=none;top=0;left=0;bottom=0;right=0;editable=1;overflow=hidden;" parent="g0dB4fThE9D3y6vZpoi5-77" vertex="1">
          <mxGeometry width="30" height="30" as="geometry">
            <mxRectangle width="30" height="30" as="alternateBounds" />
          </mxGeometry>
        </mxCell>
        <mxCell id="g0dB4fThE9D3y6vZpoi5-79" value="" style="shape=partialRectangle;connectable=0;fillColor=none;top=0;left=0;bottom=0;right=0;align=left;spacingLeft=6;overflow=hidden;" parent="g0dB4fThE9D3y6vZpoi5-77" vertex="1">
          <mxGeometry x="30" width="219.32" height="30" as="geometry">
            <mxRectangle width="219.32" height="30" as="alternateBounds" />
          </mxGeometry>
        </mxCell>
        <mxCell id="2jKcjm-qkLe9Er315lRe-79" value="software" style="shape=table;startSize=30;container=1;collapsible=1;childLayout=tableLayout;fixedRows=1;rowLines=0;fontStyle=1;align=center;resizeLast=1;" parent="gNVXbrv3SQmsqr1-LKS6-168" vertex="1">
          <mxGeometry x="1581.48" y="1179.09" width="243.31" height="120.91" as="geometry" />
        </mxCell>
        <mxCell id="2jKcjm-qkLe9Er315lRe-80" value="" style="shape=tableRow;horizontal=0;startSize=0;swimlaneHead=0;swimlaneBody=0;fillColor=none;collapsible=0;dropTarget=0;points=[[0,0.5],[1,0.5]];portConstraint=eastwest;top=0;left=0;right=0;bottom=1;" parent="2jKcjm-qkLe9Er315lRe-79" vertex="1">
          <mxGeometry y="30" width="243.31" height="30" as="geometry" />
        </mxCell>
        <mxCell id="2jKcjm-qkLe9Er315lRe-81" value="PK" style="shape=partialRectangle;connectable=0;fillColor=none;top=0;left=0;bottom=0;right=0;fontStyle=1;overflow=hidden;" parent="2jKcjm-qkLe9Er315lRe-80" vertex="1">
          <mxGeometry width="30" height="30" as="geometry">
            <mxRectangle width="30" height="30" as="alternateBounds" />
          </mxGeometry>
        </mxCell>
        <mxCell id="2jKcjm-qkLe9Er315lRe-82" value="id" style="shape=partialRectangle;connectable=0;fillColor=none;top=0;left=0;bottom=0;right=0;align=left;spacingLeft=6;fontStyle=5;overflow=hidden;" parent="2jKcjm-qkLe9Er315lRe-80" vertex="1">
          <mxGeometry x="30" width="213.31" height="30" as="geometry">
            <mxRectangle width="213.31" height="30" as="alternateBounds" />
          </mxGeometry>
        </mxCell>
        <mxCell id="2jKcjm-qkLe9Er315lRe-83" value="" style="shape=tableRow;horizontal=0;startSize=0;swimlaneHead=0;swimlaneBody=0;fillColor=none;collapsible=0;dropTarget=0;points=[[0,0.5],[1,0.5]];portConstraint=eastwest;top=0;left=0;right=0;bottom=0;" parent="2jKcjm-qkLe9Er315lRe-79" vertex="1">
          <mxGeometry y="60" width="243.31" height="30" as="geometry" />
        </mxCell>
        <mxCell id="2jKcjm-qkLe9Er315lRe-84" value="" style="shape=partialRectangle;connectable=0;fillColor=none;top=0;left=0;bottom=0;right=0;editable=1;overflow=hidden;" parent="2jKcjm-qkLe9Er315lRe-83" vertex="1">
          <mxGeometry width="30" height="30" as="geometry">
            <mxRectangle width="30" height="30" as="alternateBounds" />
          </mxGeometry>
        </mxCell>
        <mxCell id="2jKcjm-qkLe9Er315lRe-85" value="link" style="shape=partialRectangle;connectable=0;fillColor=none;top=0;left=0;bottom=0;right=0;align=left;spacingLeft=6;overflow=hidden;" parent="2jKcjm-qkLe9Er315lRe-83" vertex="1">
          <mxGeometry x="30" width="213.31" height="30" as="geometry">
            <mxRectangle width="213.31" height="30" as="alternateBounds" />
          </mxGeometry>
        </mxCell>
        <mxCell id="2jKcjm-qkLe9Er315lRe-89" value="" style="shape=tableRow;horizontal=0;startSize=0;swimlaneHead=0;swimlaneBody=0;fillColor=none;collapsible=0;dropTarget=0;points=[[0,0.5],[1,0.5]];portConstraint=eastwest;top=0;left=0;right=0;bottom=0;" parent="2jKcjm-qkLe9Er315lRe-79" vertex="1">
          <mxGeometry y="90" width="243.31" height="30" as="geometry" />
        </mxCell>
        <mxCell id="2jKcjm-qkLe9Er315lRe-90" value="FK" style="shape=partialRectangle;connectable=0;fillColor=none;top=0;left=0;bottom=0;right=0;editable=1;overflow=hidden;" parent="2jKcjm-qkLe9Er315lRe-89" vertex="1">
          <mxGeometry width="30" height="30" as="geometry">
            <mxRectangle width="30" height="30" as="alternateBounds" />
          </mxGeometry>
        </mxCell>
        <mxCell id="2jKcjm-qkLe9Er315lRe-91" value="subject_id" style="shape=partialRectangle;connectable=0;fillColor=none;top=0;left=0;bottom=0;right=0;align=left;spacingLeft=6;overflow=hidden;" parent="2jKcjm-qkLe9Er315lRe-89" vertex="1">
          <mxGeometry x="30" width="213.31" height="30" as="geometry">
            <mxRectangle width="213.31" height="30" as="alternateBounds" />
          </mxGeometry>
        </mxCell>
        <mxCell id="2jKcjm-qkLe9Er315lRe-92" value="article" style="shape=table;startSize=30;container=1;collapsible=1;childLayout=tableLayout;fixedRows=1;rowLines=0;fontStyle=1;align=center;resizeLast=1;" parent="gNVXbrv3SQmsqr1-LKS6-168" vertex="1">
          <mxGeometry x="2108.64" y="690.61" width="243.31" height="129.39" as="geometry" />
        </mxCell>
        <mxCell id="2jKcjm-qkLe9Er315lRe-93" value="" style="shape=tableRow;horizontal=0;startSize=0;swimlaneHead=0;swimlaneBody=0;fillColor=none;collapsible=0;dropTarget=0;points=[[0,0.5],[1,0.5]];portConstraint=eastwest;top=0;left=0;right=0;bottom=1;" parent="2jKcjm-qkLe9Er315lRe-92" vertex="1">
          <mxGeometry y="30" width="243.31" height="30" as="geometry" />
        </mxCell>
        <mxCell id="2jKcjm-qkLe9Er315lRe-94" value="PK" style="shape=partialRectangle;connectable=0;fillColor=none;top=0;left=0;bottom=0;right=0;fontStyle=1;overflow=hidden;" parent="2jKcjm-qkLe9Er315lRe-93" vertex="1">
          <mxGeometry width="30" height="30" as="geometry">
            <mxRectangle width="30" height="30" as="alternateBounds" />
          </mxGeometry>
        </mxCell>
        <mxCell id="2jKcjm-qkLe9Er315lRe-95" value="id" style="shape=partialRectangle;connectable=0;fillColor=none;top=0;left=0;bottom=0;right=0;align=left;spacingLeft=6;fontStyle=5;overflow=hidden;" parent="2jKcjm-qkLe9Er315lRe-93" vertex="1">
          <mxGeometry x="30" width="213.31" height="30" as="geometry">
            <mxRectangle width="213.31" height="30" as="alternateBounds" />
          </mxGeometry>
        </mxCell>
        <mxCell id="2jKcjm-qkLe9Er315lRe-96" value="" style="shape=tableRow;horizontal=0;startSize=0;swimlaneHead=0;swimlaneBody=0;fillColor=none;collapsible=0;dropTarget=0;points=[[0,0.5],[1,0.5]];portConstraint=eastwest;top=0;left=0;right=0;bottom=0;" parent="2jKcjm-qkLe9Er315lRe-92" vertex="1">
          <mxGeometry y="60" width="243.31" height="30" as="geometry" />
        </mxCell>
        <mxCell id="2jKcjm-qkLe9Er315lRe-97" value="" style="shape=partialRectangle;connectable=0;fillColor=none;top=0;left=0;bottom=0;right=0;editable=1;overflow=hidden;" parent="2jKcjm-qkLe9Er315lRe-96" vertex="1">
          <mxGeometry width="30" height="30" as="geometry">
            <mxRectangle width="30" height="30" as="alternateBounds" />
          </mxGeometry>
        </mxCell>
        <mxCell id="2jKcjm-qkLe9Er315lRe-98" value="link_conference" style="shape=partialRectangle;connectable=0;fillColor=none;top=0;left=0;bottom=0;right=0;align=left;spacingLeft=6;overflow=hidden;" parent="2jKcjm-qkLe9Er315lRe-96" vertex="1">
          <mxGeometry x="30" width="213.31" height="30" as="geometry">
            <mxRectangle width="213.31" height="30" as="alternateBounds" />
          </mxGeometry>
        </mxCell>
        <mxCell id="2jKcjm-qkLe9Er315lRe-99" value="" style="shape=tableRow;horizontal=0;startSize=0;swimlaneHead=0;swimlaneBody=0;fillColor=none;collapsible=0;dropTarget=0;points=[[0,0.5],[1,0.5]];portConstraint=eastwest;top=0;left=0;right=0;bottom=0;" parent="2jKcjm-qkLe9Er315lRe-92" vertex="1">
          <mxGeometry y="90" width="243.31" height="30" as="geometry" />
        </mxCell>
        <mxCell id="2jKcjm-qkLe9Er315lRe-100" value="FK" style="shape=partialRectangle;connectable=0;fillColor=none;top=0;left=0;bottom=0;right=0;editable=1;overflow=hidden;" parent="2jKcjm-qkLe9Er315lRe-99" vertex="1">
          <mxGeometry width="30" height="30" as="geometry">
            <mxRectangle width="30" height="30" as="alternateBounds" />
          </mxGeometry>
        </mxCell>
        <mxCell id="2jKcjm-qkLe9Er315lRe-101" value="metodical_material_id" style="shape=partialRectangle;connectable=0;fillColor=none;top=0;left=0;bottom=0;right=0;align=left;spacingLeft=6;overflow=hidden;fontStyle=0" parent="2jKcjm-qkLe9Er315lRe-99" vertex="1">
          <mxGeometry x="30" width="213.31" height="30" as="geometry">
            <mxRectangle width="213.31" height="30" as="alternateBounds" />
          </mxGeometry>
        </mxCell>
        <mxCell id="2jKcjm-qkLe9Er315lRe-105" value="user" style="shape=table;startSize=30;container=1;collapsible=1;childLayout=tableLayout;fixedRows=1;rowLines=0;fontStyle=1;align=center;resizeLast=1;" parent="gNVXbrv3SQmsqr1-LKS6-168" vertex="1">
          <mxGeometry x="527.16" y="1570" width="243.31" height="154.51" as="geometry" />
        </mxCell>
        <mxCell id="2jKcjm-qkLe9Er315lRe-106" value="" style="shape=tableRow;horizontal=0;startSize=0;swimlaneHead=0;swimlaneBody=0;fillColor=none;collapsible=0;dropTarget=0;points=[[0,0.5],[1,0.5]];portConstraint=eastwest;top=0;left=0;right=0;bottom=1;" parent="2jKcjm-qkLe9Er315lRe-105" vertex="1">
          <mxGeometry y="30" width="243.31" height="30" as="geometry" />
        </mxCell>
        <mxCell id="2jKcjm-qkLe9Er315lRe-107" value="PK" style="shape=partialRectangle;connectable=0;fillColor=none;top=0;left=0;bottom=0;right=0;fontStyle=1;overflow=hidden;" parent="2jKcjm-qkLe9Er315lRe-106" vertex="1">
          <mxGeometry width="30" height="30" as="geometry">
            <mxRectangle width="30" height="30" as="alternateBounds" />
          </mxGeometry>
        </mxCell>
        <mxCell id="2jKcjm-qkLe9Er315lRe-108" value="id" style="shape=partialRectangle;connectable=0;fillColor=none;top=0;left=0;bottom=0;right=0;align=left;spacingLeft=6;fontStyle=5;overflow=hidden;" parent="2jKcjm-qkLe9Er315lRe-106" vertex="1">
          <mxGeometry x="30" width="213.31" height="30" as="geometry">
            <mxRectangle width="213.31" height="30" as="alternateBounds" />
          </mxGeometry>
        </mxCell>
        <mxCell id="2jKcjm-qkLe9Er315lRe-109" value="" style="shape=tableRow;horizontal=0;startSize=0;swimlaneHead=0;swimlaneBody=0;fillColor=none;collapsible=0;dropTarget=0;points=[[0,0.5],[1,0.5]];portConstraint=eastwest;top=0;left=0;right=0;bottom=0;" parent="2jKcjm-qkLe9Er315lRe-105" vertex="1">
          <mxGeometry y="60" width="243.31" height="30" as="geometry" />
        </mxCell>
        <mxCell id="2jKcjm-qkLe9Er315lRe-110" value="" style="shape=partialRectangle;connectable=0;fillColor=none;top=0;left=0;bottom=0;right=0;editable=1;overflow=hidden;" parent="2jKcjm-qkLe9Er315lRe-109" vertex="1">
          <mxGeometry width="30" height="30" as="geometry">
            <mxRectangle width="30" height="30" as="alternateBounds" />
          </mxGeometry>
        </mxCell>
        <mxCell id="2jKcjm-qkLe9Er315lRe-111" value="username" style="shape=partialRectangle;connectable=0;fillColor=none;top=0;left=0;bottom=0;right=0;align=left;spacingLeft=6;overflow=hidden;" parent="2jKcjm-qkLe9Er315lRe-109" vertex="1">
          <mxGeometry x="30" width="213.31" height="30" as="geometry">
            <mxRectangle width="213.31" height="30" as="alternateBounds" />
          </mxGeometry>
        </mxCell>
        <mxCell id="2jKcjm-qkLe9Er315lRe-112" value="" style="shape=tableRow;horizontal=0;startSize=0;swimlaneHead=0;swimlaneBody=0;fillColor=none;collapsible=0;dropTarget=0;points=[[0,0.5],[1,0.5]];portConstraint=eastwest;top=0;left=0;right=0;bottom=0;" parent="2jKcjm-qkLe9Er315lRe-105" vertex="1">
          <mxGeometry y="90" width="243.31" height="30" as="geometry" />
        </mxCell>
        <mxCell id="2jKcjm-qkLe9Er315lRe-113" value="" style="shape=partialRectangle;connectable=0;fillColor=none;top=0;left=0;bottom=0;right=0;editable=1;overflow=hidden;" parent="2jKcjm-qkLe9Er315lRe-112" vertex="1">
          <mxGeometry width="30" height="30" as="geometry">
            <mxRectangle width="30" height="30" as="alternateBounds" />
          </mxGeometry>
        </mxCell>
        <mxCell id="2jKcjm-qkLe9Er315lRe-114" value="password_hash" style="shape=partialRectangle;connectable=0;fillColor=none;top=0;left=0;bottom=0;right=0;align=left;spacingLeft=6;overflow=hidden;" parent="2jKcjm-qkLe9Er315lRe-112" vertex="1">
          <mxGeometry x="30" width="213.31" height="30" as="geometry">
            <mxRectangle width="213.31" height="30" as="alternateBounds" />
          </mxGeometry>
        </mxCell>
        <mxCell id="2jKcjm-qkLe9Er315lRe-115" value="" style="shape=tableRow;horizontal=0;startSize=0;swimlaneHead=0;swimlaneBody=0;fillColor=none;collapsible=0;dropTarget=0;points=[[0,0.5],[1,0.5]];portConstraint=eastwest;top=0;left=0;right=0;bottom=0;" parent="2jKcjm-qkLe9Er315lRe-105" vertex="1">
          <mxGeometry y="120" width="243.31" height="30" as="geometry" />
        </mxCell>
        <mxCell id="2jKcjm-qkLe9Er315lRe-116" value="" style="shape=partialRectangle;connectable=0;fillColor=none;top=0;left=0;bottom=0;right=0;editable=1;overflow=hidden;" parent="2jKcjm-qkLe9Er315lRe-115" vertex="1">
          <mxGeometry width="30" height="30" as="geometry">
            <mxRectangle width="30" height="30" as="alternateBounds" />
          </mxGeometry>
        </mxCell>
        <mxCell id="2jKcjm-qkLe9Er315lRe-117" value="last_login_date" style="shape=partialRectangle;connectable=0;fillColor=none;top=0;left=0;bottom=0;right=0;align=left;spacingLeft=6;overflow=hidden;" parent="2jKcjm-qkLe9Er315lRe-115" vertex="1">
          <mxGeometry x="30" width="213.31" height="30" as="geometry">
            <mxRectangle width="213.31" height="30" as="alternateBounds" />
          </mxGeometry>
        </mxCell>
        <mxCell id="g0dB4fThE9D3y6vZpoi5-93" value="moderator" style="shape=table;startSize=30;container=1;collapsible=1;childLayout=tableLayout;fixedRows=1;rowLines=0;fontStyle=1;align=center;resizeLast=1;" parent="gNVXbrv3SQmsqr1-LKS6-168" vertex="1">
          <mxGeometry x="986.7399999999999" y="1900.0000000000002" width="243.31" height="156.08" as="geometry" />
        </mxCell>
        <mxCell id="g0dB4fThE9D3y6vZpoi5-94" value="" style="shape=tableRow;horizontal=0;startSize=0;swimlaneHead=0;swimlaneBody=0;fillColor=none;collapsible=0;dropTarget=0;points=[[0,0.5],[1,0.5]];portConstraint=eastwest;top=0;left=0;right=0;bottom=1;" parent="g0dB4fThE9D3y6vZpoi5-93" vertex="1">
          <mxGeometry y="30" width="243.31" height="30" as="geometry" />
        </mxCell>
        <mxCell id="g0dB4fThE9D3y6vZpoi5-95" value="PK" style="shape=partialRectangle;connectable=0;fillColor=none;top=0;left=0;bottom=0;right=0;fontStyle=1;overflow=hidden;" parent="g0dB4fThE9D3y6vZpoi5-94" vertex="1">
          <mxGeometry width="30" height="30" as="geometry">
            <mxRectangle width="30" height="30" as="alternateBounds" />
          </mxGeometry>
        </mxCell>
        <mxCell id="g0dB4fThE9D3y6vZpoi5-96" value="id" style="shape=partialRectangle;connectable=0;fillColor=none;top=0;left=0;bottom=0;right=0;align=left;spacingLeft=6;fontStyle=5;overflow=hidden;" parent="g0dB4fThE9D3y6vZpoi5-94" vertex="1">
          <mxGeometry x="30" width="213.31" height="30" as="geometry">
            <mxRectangle width="213.31" height="30" as="alternateBounds" />
          </mxGeometry>
        </mxCell>
        <mxCell id="g0dB4fThE9D3y6vZpoi5-97" value="" style="shape=tableRow;horizontal=0;startSize=0;swimlaneHead=0;swimlaneBody=0;fillColor=none;collapsible=0;dropTarget=0;points=[[0,0.5],[1,0.5]];portConstraint=eastwest;top=0;left=0;right=0;bottom=0;" parent="g0dB4fThE9D3y6vZpoi5-93" vertex="1">
          <mxGeometry y="60" width="243.31" height="30" as="geometry" />
        </mxCell>
        <mxCell id="g0dB4fThE9D3y6vZpoi5-98" value="FK" style="shape=partialRectangle;connectable=0;fillColor=none;top=0;left=0;bottom=0;right=0;editable=1;overflow=hidden;" parent="g0dB4fThE9D3y6vZpoi5-97" vertex="1">
          <mxGeometry width="30" height="30" as="geometry">
            <mxRectangle width="30" height="30" as="alternateBounds" />
          </mxGeometry>
        </mxCell>
        <mxCell id="g0dB4fThE9D3y6vZpoi5-99" value="user_id" style="shape=partialRectangle;connectable=0;fillColor=none;top=0;left=0;bottom=0;right=0;align=left;spacingLeft=6;overflow=hidden;" parent="g0dB4fThE9D3y6vZpoi5-97" vertex="1">
          <mxGeometry x="30" width="213.31" height="30" as="geometry">
            <mxRectangle width="213.31" height="30" as="alternateBounds" />
          </mxGeometry>
        </mxCell>
        <mxCell id="g0dB4fThE9D3y6vZpoi5-100" value="" style="shape=tableRow;horizontal=0;startSize=0;swimlaneHead=0;swimlaneBody=0;fillColor=none;collapsible=0;dropTarget=0;points=[[0,0.5],[1,0.5]];portConstraint=eastwest;top=0;left=0;right=0;bottom=0;" parent="g0dB4fThE9D3y6vZpoi5-93" vertex="1">
          <mxGeometry y="90" width="243.31" height="30" as="geometry" />
        </mxCell>
        <mxCell id="g0dB4fThE9D3y6vZpoi5-101" value="" style="shape=partialRectangle;connectable=0;fillColor=none;top=0;left=0;bottom=0;right=0;editable=1;overflow=hidden;" parent="g0dB4fThE9D3y6vZpoi5-100" vertex="1">
          <mxGeometry width="30" height="30" as="geometry">
            <mxRectangle width="30" height="30" as="alternateBounds" />
          </mxGeometry>
        </mxCell>
        <mxCell id="g0dB4fThE9D3y6vZpoi5-102" value="email" style="shape=partialRectangle;connectable=0;fillColor=none;top=0;left=0;bottom=0;right=0;align=left;spacingLeft=6;overflow=hidden;" parent="g0dB4fThE9D3y6vZpoi5-100" vertex="1">
          <mxGeometry x="30" width="213.31" height="30" as="geometry">
            <mxRectangle width="213.31" height="30" as="alternateBounds" />
          </mxGeometry>
        </mxCell>
        <mxCell id="g0dB4fThE9D3y6vZpoi5-103" value="" style="shape=tableRow;horizontal=0;startSize=0;swimlaneHead=0;swimlaneBody=0;fillColor=none;collapsible=0;dropTarget=0;points=[[0,0.5],[1,0.5]];portConstraint=eastwest;top=0;left=0;right=0;bottom=0;" parent="g0dB4fThE9D3y6vZpoi5-93" vertex="1">
          <mxGeometry y="120" width="243.31" height="30" as="geometry" />
        </mxCell>
        <mxCell id="g0dB4fThE9D3y6vZpoi5-104" value="" style="shape=partialRectangle;connectable=0;fillColor=none;top=0;left=0;bottom=0;right=0;editable=1;overflow=hidden;" parent="g0dB4fThE9D3y6vZpoi5-103" vertex="1">
          <mxGeometry width="30" height="30" as="geometry">
            <mxRectangle width="30" height="30" as="alternateBounds" />
          </mxGeometry>
        </mxCell>
        <mxCell id="g0dB4fThE9D3y6vZpoi5-105" value="" style="shape=partialRectangle;connectable=0;fillColor=none;top=0;left=0;bottom=0;right=0;align=left;spacingLeft=6;overflow=hidden;" parent="g0dB4fThE9D3y6vZpoi5-103" vertex="1">
          <mxGeometry x="30" width="213.31" height="30" as="geometry">
            <mxRectangle width="213.31" height="30" as="alternateBounds" />
          </mxGeometry>
        </mxCell>
        <mxCell id="2jKcjm-qkLe9Er315lRe-228" value="" style="group" parent="gNVXbrv3SQmsqr1-LKS6-168" connectable="0" vertex="1">
          <mxGeometry x="1595" y="791.6730038022814" width="243.31" height="303.1939163498099" as="geometry" />
        </mxCell>
        <mxCell id="2jKcjm-qkLe9Er315lRe-263" value="" style="group" parent="2jKcjm-qkLe9Er315lRe-228" connectable="0" vertex="1">
          <mxGeometry width="243.31" height="252.66159695817493" as="geometry" />
        </mxCell>
        <mxCell id="2jKcjm-qkLe9Er315lRe-35" value="metodical_material" style="shape=table;startSize=30;container=1;collapsible=1;childLayout=tableLayout;fixedRows=1;rowLines=0;fontStyle=1;align=center;resizeLast=1;" parent="2jKcjm-qkLe9Er315lRe-263" vertex="1">
          <mxGeometry width="243.31" height="170" as="geometry" />
        </mxCell>
        <mxCell id="2jKcjm-qkLe9Er315lRe-36" value="" style="shape=tableRow;horizontal=0;startSize=0;swimlaneHead=0;swimlaneBody=0;fillColor=none;collapsible=0;dropTarget=0;points=[[0,0.5],[1,0.5]];portConstraint=eastwest;top=0;left=0;right=0;bottom=1;" parent="2jKcjm-qkLe9Er315lRe-35" vertex="1">
          <mxGeometry y="30" width="243.31" height="30" as="geometry" />
        </mxCell>
        <mxCell id="2jKcjm-qkLe9Er315lRe-37" value="PK" style="shape=partialRectangle;connectable=0;fillColor=none;top=0;left=0;bottom=0;right=0;fontStyle=1;overflow=hidden;" parent="2jKcjm-qkLe9Er315lRe-36" vertex="1">
          <mxGeometry width="30" height="30" as="geometry">
            <mxRectangle width="30" height="30" as="alternateBounds" />
          </mxGeometry>
        </mxCell>
        <mxCell id="2jKcjm-qkLe9Er315lRe-38" value="id" style="shape=partialRectangle;connectable=0;fillColor=none;top=0;left=0;bottom=0;right=0;align=left;spacingLeft=6;fontStyle=5;overflow=hidden;" parent="2jKcjm-qkLe9Er315lRe-36" vertex="1">
          <mxGeometry x="30" width="213.31" height="30" as="geometry">
            <mxRectangle width="213.31" height="30" as="alternateBounds" />
          </mxGeometry>
        </mxCell>
        <mxCell id="2jKcjm-qkLe9Er315lRe-39" value="" style="shape=tableRow;horizontal=0;startSize=0;swimlaneHead=0;swimlaneBody=0;fillColor=none;collapsible=0;dropTarget=0;points=[[0,0.5],[1,0.5]];portConstraint=eastwest;top=0;left=0;right=0;bottom=0;" parent="2jKcjm-qkLe9Er315lRe-35" vertex="1">
          <mxGeometry y="60" width="243.31" height="30" as="geometry" />
        </mxCell>
        <mxCell id="2jKcjm-qkLe9Er315lRe-40" value="" style="shape=partialRectangle;connectable=0;fillColor=none;top=0;left=0;bottom=0;right=0;editable=1;overflow=hidden;" parent="2jKcjm-qkLe9Er315lRe-39" vertex="1">
          <mxGeometry width="30" height="30" as="geometry">
            <mxRectangle width="30" height="30" as="alternateBounds" />
          </mxGeometry>
        </mxCell>
        <mxCell id="2jKcjm-qkLe9Er315lRe-41" value="link" style="shape=partialRectangle;connectable=0;fillColor=none;top=0;left=0;bottom=0;right=0;align=left;spacingLeft=6;overflow=hidden;" parent="2jKcjm-qkLe9Er315lRe-39" vertex="1">
          <mxGeometry x="30" width="213.31" height="30" as="geometry">
            <mxRectangle width="213.31" height="30" as="alternateBounds" />
          </mxGeometry>
        </mxCell>
        <mxCell id="2jKcjm-qkLe9Er315lRe-42" value="" style="shape=tableRow;horizontal=0;startSize=0;swimlaneHead=0;swimlaneBody=0;fillColor=none;collapsible=0;dropTarget=0;points=[[0,0.5],[1,0.5]];portConstraint=eastwest;top=0;left=0;right=0;bottom=0;" parent="2jKcjm-qkLe9Er315lRe-35" vertex="1">
          <mxGeometry y="90" width="243.31" height="30" as="geometry" />
        </mxCell>
        <mxCell id="2jKcjm-qkLe9Er315lRe-43" value="FK" style="shape=partialRectangle;connectable=0;fillColor=none;top=0;left=0;bottom=0;right=0;editable=1;overflow=hidden;" parent="2jKcjm-qkLe9Er315lRe-42" vertex="1">
          <mxGeometry width="30" height="30" as="geometry">
            <mxRectangle width="30" height="30" as="alternateBounds" />
          </mxGeometry>
        </mxCell>
        <mxCell id="2jKcjm-qkLe9Er315lRe-44" value="type_id" style="shape=partialRectangle;connectable=0;fillColor=none;top=0;left=0;bottom=0;right=0;align=left;spacingLeft=6;overflow=hidden;" parent="2jKcjm-qkLe9Er315lRe-42" vertex="1">
          <mxGeometry x="30" width="213.31" height="30" as="geometry">
            <mxRectangle width="213.31" height="30" as="alternateBounds" />
          </mxGeometry>
        </mxCell>
        <mxCell id="2jKcjm-qkLe9Er315lRe-50" value="subject_id" style="shape=partialRectangle;fillColor=none;align=left;verticalAlign=middle;strokeColor=none;spacingLeft=34;rotatable=0;points=[[0,0.5],[1,0.5]];portConstraint=eastwest;dropTarget=0;" parent="2jKcjm-qkLe9Er315lRe-263" vertex="1">
          <mxGeometry y="118.33" width="90" height="50.53" as="geometry" />
        </mxCell>
        <mxCell id="2jKcjm-qkLe9Er315lRe-51" value="FK" style="shape=partialRectangle;top=0;left=0;bottom=0;fillColor=none;stokeWidth=1;align=left;verticalAlign=middle;spacingLeft=4;spacingRight=4;overflow=hidden;rotatable=0;points=[];portConstraint=eastwest;part=1;" parent="2jKcjm-qkLe9Er315lRe-50" connectable="0" vertex="1">
          <mxGeometry width="29.999999999999996" height="50.53" as="geometry" />
        </mxCell>
        <mxCell id="2jKcjm-qkLe9Er315lRe-231" value="" style="group" parent="gNVXbrv3SQmsqr1-LKS6-168" connectable="0" vertex="1">
          <mxGeometry x="986.7372881355932" y="336.88212927756655" width="243.3050847457627" height="404.2585551330799" as="geometry" />
        </mxCell>
        <mxCell id="2jKcjm-qkLe9Er315lRe-170" value="certificate" style="shape=table;startSize=30;container=1;collapsible=1;childLayout=tableLayout;fixedRows=1;rowLines=0;fontStyle=1;align=center;resizeLast=1;" parent="2jKcjm-qkLe9Er315lRe-231" vertex="1">
          <mxGeometry width="240" height="240" as="geometry" />
        </mxCell>
        <mxCell id="2jKcjm-qkLe9Er315lRe-171" value="" style="shape=tableRow;horizontal=0;startSize=0;swimlaneHead=0;swimlaneBody=0;fillColor=none;collapsible=0;dropTarget=0;points=[[0,0.5],[1,0.5]];portConstraint=eastwest;top=0;left=0;right=0;bottom=1;" parent="2jKcjm-qkLe9Er315lRe-170" vertex="1">
          <mxGeometry y="30" width="240" height="30" as="geometry" />
        </mxCell>
        <mxCell id="2jKcjm-qkLe9Er315lRe-172" value="PK" style="shape=partialRectangle;connectable=0;fillColor=none;top=0;left=0;bottom=0;right=0;fontStyle=1;overflow=hidden;" parent="2jKcjm-qkLe9Er315lRe-171" vertex="1">
          <mxGeometry width="30" height="30" as="geometry">
            <mxRectangle width="30" height="30" as="alternateBounds" />
          </mxGeometry>
        </mxCell>
        <mxCell id="2jKcjm-qkLe9Er315lRe-173" value="id" style="shape=partialRectangle;connectable=0;fillColor=none;top=0;left=0;bottom=0;right=0;align=left;spacingLeft=6;fontStyle=5;overflow=hidden;" parent="2jKcjm-qkLe9Er315lRe-171" vertex="1">
          <mxGeometry x="30" width="210" height="30" as="geometry">
            <mxRectangle width="210" height="30" as="alternateBounds" />
          </mxGeometry>
        </mxCell>
        <mxCell id="2jKcjm-qkLe9Er315lRe-174" value="" style="shape=tableRow;horizontal=0;startSize=0;swimlaneHead=0;swimlaneBody=0;fillColor=none;collapsible=0;dropTarget=0;points=[[0,0.5],[1,0.5]];portConstraint=eastwest;top=0;left=0;right=0;bottom=0;" parent="2jKcjm-qkLe9Er315lRe-170" vertex="1">
          <mxGeometry y="60" width="240" height="30" as="geometry" />
        </mxCell>
        <mxCell id="2jKcjm-qkLe9Er315lRe-175" value="" style="shape=partialRectangle;connectable=0;fillColor=none;top=0;left=0;bottom=0;right=0;editable=1;overflow=hidden;" parent="2jKcjm-qkLe9Er315lRe-174" vertex="1">
          <mxGeometry width="30" height="30" as="geometry">
            <mxRectangle width="30" height="30" as="alternateBounds" />
          </mxGeometry>
        </mxCell>
        <mxCell id="2jKcjm-qkLe9Er315lRe-176" value="certificate_name" style="shape=partialRectangle;connectable=0;fillColor=none;top=0;left=0;bottom=0;right=0;align=left;spacingLeft=6;overflow=hidden;" parent="2jKcjm-qkLe9Er315lRe-174" vertex="1">
          <mxGeometry x="30" width="210" height="30" as="geometry">
            <mxRectangle width="210" height="30" as="alternateBounds" />
          </mxGeometry>
        </mxCell>
        <mxCell id="2jKcjm-qkLe9Er315lRe-177" value="" style="shape=tableRow;horizontal=0;startSize=0;swimlaneHead=0;swimlaneBody=0;fillColor=none;collapsible=0;dropTarget=0;points=[[0,0.5],[1,0.5]];portConstraint=eastwest;top=0;left=0;right=0;bottom=0;" parent="2jKcjm-qkLe9Er315lRe-170" vertex="1">
          <mxGeometry y="90" width="240" height="30" as="geometry" />
        </mxCell>
        <mxCell id="2jKcjm-qkLe9Er315lRe-178" value="" style="shape=partialRectangle;connectable=0;fillColor=none;top=0;left=0;bottom=0;right=0;editable=1;overflow=hidden;" parent="2jKcjm-qkLe9Er315lRe-177" vertex="1">
          <mxGeometry width="30" height="30" as="geometry">
            <mxRectangle width="30" height="30" as="alternateBounds" />
          </mxGeometry>
        </mxCell>
        <mxCell id="2jKcjm-qkLe9Er315lRe-179" value="description" style="shape=partialRectangle;connectable=0;fillColor=none;top=0;left=0;bottom=0;right=0;align=left;spacingLeft=6;overflow=hidden;" parent="2jKcjm-qkLe9Er315lRe-177" vertex="1">
          <mxGeometry x="30" width="210" height="30" as="geometry">
            <mxRectangle width="210" height="30" as="alternateBounds" />
          </mxGeometry>
        </mxCell>
        <mxCell id="2jKcjm-qkLe9Er315lRe-180" value="" style="shape=tableRow;horizontal=0;startSize=0;swimlaneHead=0;swimlaneBody=0;fillColor=none;collapsible=0;dropTarget=0;points=[[0,0.5],[1,0.5]];portConstraint=eastwest;top=0;left=0;right=0;bottom=0;" parent="2jKcjm-qkLe9Er315lRe-170" vertex="1">
          <mxGeometry y="120" width="240" height="30" as="geometry" />
        </mxCell>
        <mxCell id="2jKcjm-qkLe9Er315lRe-181" value="" style="shape=partialRectangle;connectable=0;fillColor=none;top=0;left=0;bottom=0;right=0;editable=1;overflow=hidden;" parent="2jKcjm-qkLe9Er315lRe-180" vertex="1">
          <mxGeometry width="30" height="30" as="geometry">
            <mxRectangle width="30" height="30" as="alternateBounds" />
          </mxGeometry>
        </mxCell>
        <mxCell id="2jKcjm-qkLe9Er315lRe-182" value="person" style="shape=partialRectangle;connectable=0;fillColor=none;top=0;left=0;bottom=0;right=0;align=left;spacingLeft=6;overflow=hidden;" parent="2jKcjm-qkLe9Er315lRe-180" vertex="1">
          <mxGeometry x="30" width="210" height="30" as="geometry">
            <mxRectangle width="210" height="30" as="alternateBounds" />
          </mxGeometry>
        </mxCell>
        <mxCell id="2jKcjm-qkLe9Er315lRe-183" value="office" style="shape=partialRectangle;fillColor=none;align=left;verticalAlign=middle;strokeColor=none;spacingLeft=34;rotatable=0;points=[[0,0.5],[1,0.5]];portConstraint=eastwest;dropTarget=0;" parent="2jKcjm-qkLe9Er315lRe-231" vertex="1">
          <mxGeometry y="190" width="90" height="47.03" as="geometry" />
        </mxCell>
        <mxCell id="2jKcjm-qkLe9Er315lRe-184" value="" style="shape=partialRectangle;top=0;left=0;bottom=0;fillColor=none;stokeWidth=1;align=left;verticalAlign=middle;spacingLeft=4;spacingRight=4;overflow=hidden;rotatable=0;points=[];portConstraint=eastwest;part=1;" parent="2jKcjm-qkLe9Er315lRe-183" connectable="0" vertex="1">
          <mxGeometry width="29.999999999999996" height="47.03" as="geometry" />
        </mxCell>
        <mxCell id="2jKcjm-qkLe9Er315lRe-253" value="group_id" style="shape=partialRectangle;fillColor=none;align=left;verticalAlign=middle;strokeColor=none;spacingLeft=34;rotatable=0;points=[[0,0.5],[1,0.5]];portConstraint=eastwest;dropTarget=0;" parent="2jKcjm-qkLe9Er315lRe-231" vertex="1">
          <mxGeometry y="150" width="90" height="40" as="geometry" />
        </mxCell>
        <mxCell id="2jKcjm-qkLe9Er315lRe-254" value="FK" style="shape=partialRectangle;top=0;left=0;bottom=0;fillColor=none;stokeWidth=1;align=left;verticalAlign=middle;spacingLeft=4;spacingRight=4;overflow=hidden;rotatable=0;points=[];portConstraint=eastwest;part=1;" parent="2jKcjm-qkLe9Er315lRe-253" connectable="0" vertex="1">
          <mxGeometry width="29.999999999999996" height="40" as="geometry" />
        </mxCell>
        <mxCell id="g0dB4fThE9D3y6vZpoi5-160" value="" style="group" parent="gNVXbrv3SQmsqr1-LKS6-168" vertex="1" connectable="0">
          <mxGeometry x="1567.966101694915" y="1465.4372623574145" width="270.34" height="523.8027376425855" as="geometry" />
        </mxCell>
        <mxCell id="g0dB4fThE9D3y6vZpoi5-122" value="email" style="shape=partialRectangle;fillColor=none;align=left;verticalAlign=middle;strokeColor=none;spacingLeft=34;rotatable=0;points=[[0,0.5],[1,0.5]];portConstraint=eastwest;dropTarget=0;" parent="g0dB4fThE9D3y6vZpoi5-160" vertex="1">
          <mxGeometry y="144.56" width="90" height="43.19" as="geometry" />
        </mxCell>
        <mxCell id="g0dB4fThE9D3y6vZpoi5-123" value="" style="shape=partialRectangle;top=0;left=0;bottom=0;fillColor=none;stokeWidth=1;align=left;verticalAlign=middle;spacingLeft=4;spacingRight=4;overflow=hidden;rotatable=0;points=[];portConstraint=eastwest;part=1;" parent="g0dB4fThE9D3y6vZpoi5-122" vertex="1" connectable="0">
          <mxGeometry width="29.999999999999996" height="43.19" as="geometry" />
        </mxCell>
        <mxCell id="g0dB4fThE9D3y6vZpoi5-125" value="phone&#xa;" style="shape=partialRectangle;fillColor=none;align=left;verticalAlign=middle;strokeColor=none;spacingLeft=34;rotatable=0;points=[[0,0.5],[1,0.5]];portConstraint=eastwest;dropTarget=0;" parent="g0dB4fThE9D3y6vZpoi5-160" vertex="1">
          <mxGeometry y="187.75" width="90" height="50.53" as="geometry" />
        </mxCell>
        <mxCell id="g0dB4fThE9D3y6vZpoi5-126" value="" style="shape=partialRectangle;top=0;left=0;bottom=0;fillColor=none;stokeWidth=1;align=left;verticalAlign=middle;spacingLeft=4;spacingRight=4;overflow=hidden;rotatable=0;points=[];portConstraint=eastwest;part=1;" parent="g0dB4fThE9D3y6vZpoi5-125" vertex="1" connectable="0">
          <mxGeometry width="29.999999999999996" height="50.53" as="geometry" />
        </mxCell>
        <mxCell id="g0dB4fThE9D3y6vZpoi5-127" value="link" style="shape=partialRectangle;fillColor=none;align=left;verticalAlign=middle;strokeColor=none;spacingLeft=34;rotatable=0;points=[[0,0.5],[1,0.5]];portConstraint=eastwest;dropTarget=0;" parent="g0dB4fThE9D3y6vZpoi5-160" vertex="1">
          <mxGeometry y="214.56" width="90" height="50.53" as="geometry" />
        </mxCell>
        <mxCell id="g0dB4fThE9D3y6vZpoi5-128" value="" style="shape=partialRectangle;top=0;left=0;bottom=0;fillColor=none;stokeWidth=1;align=left;verticalAlign=middle;spacingLeft=4;spacingRight=4;overflow=hidden;rotatable=0;points=[];portConstraint=eastwest;part=1;" parent="g0dB4fThE9D3y6vZpoi5-127" vertex="1" connectable="0">
          <mxGeometry width="29.999999999999996" height="50.53" as="geometry" />
        </mxCell>
        <mxCell id="g0dB4fThE9D3y6vZpoi5-106" value="tutor" style="shape=table;startSize=30;container=1;collapsible=1;childLayout=tableLayout;fixedRows=1;rowLines=0;fontStyle=1;align=center;resizeLast=1;" parent="g0dB4fThE9D3y6vZpoi5-160" vertex="1">
          <mxGeometry width="270.34" height="270" as="geometry" />
        </mxCell>
        <mxCell id="g0dB4fThE9D3y6vZpoi5-107" value="" style="shape=tableRow;horizontal=0;startSize=0;swimlaneHead=0;swimlaneBody=0;fillColor=none;collapsible=0;dropTarget=0;points=[[0,0.5],[1,0.5]];portConstraint=eastwest;top=0;left=0;right=0;bottom=1;" parent="g0dB4fThE9D3y6vZpoi5-106" vertex="1">
          <mxGeometry y="30" width="270.34" height="30" as="geometry" />
        </mxCell>
        <mxCell id="g0dB4fThE9D3y6vZpoi5-108" value="PK" style="shape=partialRectangle;connectable=0;fillColor=none;top=0;left=0;bottom=0;right=0;fontStyle=1;overflow=hidden;" parent="g0dB4fThE9D3y6vZpoi5-107" vertex="1">
          <mxGeometry width="30" height="30" as="geometry">
            <mxRectangle width="30" height="30" as="alternateBounds" />
          </mxGeometry>
        </mxCell>
        <mxCell id="g0dB4fThE9D3y6vZpoi5-109" value="id" style="shape=partialRectangle;connectable=0;fillColor=none;top=0;left=0;bottom=0;right=0;align=left;spacingLeft=6;fontStyle=5;overflow=hidden;" parent="g0dB4fThE9D3y6vZpoi5-107" vertex="1">
          <mxGeometry x="30" width="240.33999999999997" height="30" as="geometry">
            <mxRectangle width="240.33999999999997" height="30" as="alternateBounds" />
          </mxGeometry>
        </mxCell>
        <mxCell id="g0dB4fThE9D3y6vZpoi5-110" value="" style="shape=tableRow;horizontal=0;startSize=0;swimlaneHead=0;swimlaneBody=0;fillColor=none;collapsible=0;dropTarget=0;points=[[0,0.5],[1,0.5]];portConstraint=eastwest;top=0;left=0;right=0;bottom=0;" parent="g0dB4fThE9D3y6vZpoi5-106" vertex="1">
          <mxGeometry y="60" width="270.34" height="30" as="geometry" />
        </mxCell>
        <mxCell id="g0dB4fThE9D3y6vZpoi5-111" value="" style="shape=partialRectangle;connectable=0;fillColor=none;top=0;left=0;bottom=0;right=0;editable=1;overflow=hidden;" parent="g0dB4fThE9D3y6vZpoi5-110" vertex="1">
          <mxGeometry width="30" height="30" as="geometry">
            <mxRectangle width="30" height="30" as="alternateBounds" />
          </mxGeometry>
        </mxCell>
        <mxCell id="g0dB4fThE9D3y6vZpoi5-112" value="first_name" style="shape=partialRectangle;connectable=0;fillColor=none;top=0;left=0;bottom=0;right=0;align=left;spacingLeft=6;overflow=hidden;" parent="g0dB4fThE9D3y6vZpoi5-110" vertex="1">
          <mxGeometry x="30" width="240.33999999999997" height="30" as="geometry">
            <mxRectangle width="240.33999999999997" height="30" as="alternateBounds" />
          </mxGeometry>
        </mxCell>
        <mxCell id="g0dB4fThE9D3y6vZpoi5-113" value="" style="shape=tableRow;horizontal=0;startSize=0;swimlaneHead=0;swimlaneBody=0;fillColor=none;collapsible=0;dropTarget=0;points=[[0,0.5],[1,0.5]];portConstraint=eastwest;top=0;left=0;right=0;bottom=0;" parent="g0dB4fThE9D3y6vZpoi5-106" vertex="1">
          <mxGeometry y="90" width="270.34" height="30" as="geometry" />
        </mxCell>
        <mxCell id="g0dB4fThE9D3y6vZpoi5-114" value="" style="shape=partialRectangle;connectable=0;fillColor=none;top=0;left=0;bottom=0;right=0;editable=1;overflow=hidden;" parent="g0dB4fThE9D3y6vZpoi5-113" vertex="1">
          <mxGeometry width="30" height="30" as="geometry">
            <mxRectangle width="30" height="30" as="alternateBounds" />
          </mxGeometry>
        </mxCell>
        <mxCell id="g0dB4fThE9D3y6vZpoi5-115" value="last_name" style="shape=partialRectangle;connectable=0;fillColor=none;top=0;left=0;bottom=0;right=0;align=left;spacingLeft=6;overflow=hidden;" parent="g0dB4fThE9D3y6vZpoi5-113" vertex="1">
          <mxGeometry x="30" width="240.33999999999997" height="30" as="geometry">
            <mxRectangle width="240.33999999999997" height="30" as="alternateBounds" />
          </mxGeometry>
        </mxCell>
        <mxCell id="g0dB4fThE9D3y6vZpoi5-116" value="" style="shape=tableRow;horizontal=0;startSize=0;swimlaneHead=0;swimlaneBody=0;fillColor=none;collapsible=0;dropTarget=0;points=[[0,0.5],[1,0.5]];portConstraint=eastwest;top=0;left=0;right=0;bottom=0;" parent="g0dB4fThE9D3y6vZpoi5-106" vertex="1">
          <mxGeometry y="120" width="270.34" height="30" as="geometry" />
        </mxCell>
        <mxCell id="g0dB4fThE9D3y6vZpoi5-117" value="" style="shape=partialRectangle;connectable=0;fillColor=none;top=0;left=0;bottom=0;right=0;editable=1;overflow=hidden;" parent="g0dB4fThE9D3y6vZpoi5-116" vertex="1">
          <mxGeometry width="30" height="30" as="geometry">
            <mxRectangle width="30" height="30" as="alternateBounds" />
          </mxGeometry>
        </mxCell>
        <mxCell id="g0dB4fThE9D3y6vZpoi5-118" value="patronym" style="shape=partialRectangle;connectable=0;fillColor=none;top=0;left=0;bottom=0;right=0;align=left;spacingLeft=6;overflow=hidden;" parent="g0dB4fThE9D3y6vZpoi5-116" vertex="1">
          <mxGeometry x="30" width="240.33999999999997" height="30" as="geometry">
            <mxRectangle width="240.33999999999997" height="30" as="alternateBounds" />
          </mxGeometry>
        </mxCell>
        <mxCell id="2jKcjm-qkLe9Er315lRe-185" value="role" style="shape=table;startSize=30;container=1;collapsible=1;childLayout=tableLayout;fixedRows=1;rowLines=0;fontStyle=1;align=center;resizeLast=1;" parent="g0dB4fThE9D3y6vZpoi5-160" vertex="1">
          <mxGeometry x="0.003898305084931053" y="394.5627376425855" width="243.31" height="129.24" as="geometry" />
        </mxCell>
        <mxCell id="2jKcjm-qkLe9Er315lRe-186" value="" style="shape=tableRow;horizontal=0;startSize=0;swimlaneHead=0;swimlaneBody=0;fillColor=none;collapsible=0;dropTarget=0;points=[[0,0.5],[1,0.5]];portConstraint=eastwest;top=0;left=0;right=0;bottom=1;" parent="2jKcjm-qkLe9Er315lRe-185" vertex="1">
          <mxGeometry y="30" width="243.31" height="30" as="geometry" />
        </mxCell>
        <mxCell id="2jKcjm-qkLe9Er315lRe-187" value="PK" style="shape=partialRectangle;connectable=0;fillColor=none;top=0;left=0;bottom=0;right=0;fontStyle=1;overflow=hidden;" parent="2jKcjm-qkLe9Er315lRe-186" vertex="1">
          <mxGeometry width="30" height="30" as="geometry">
            <mxRectangle width="30" height="30" as="alternateBounds" />
          </mxGeometry>
        </mxCell>
        <mxCell id="2jKcjm-qkLe9Er315lRe-188" value="id" style="shape=partialRectangle;connectable=0;fillColor=none;top=0;left=0;bottom=0;right=0;align=left;spacingLeft=6;fontStyle=5;overflow=hidden;" parent="2jKcjm-qkLe9Er315lRe-186" vertex="1">
          <mxGeometry x="30" width="213.31" height="30" as="geometry">
            <mxRectangle width="213.31" height="30" as="alternateBounds" />
          </mxGeometry>
        </mxCell>
        <mxCell id="2jKcjm-qkLe9Er315lRe-189" value="" style="shape=tableRow;horizontal=0;startSize=0;swimlaneHead=0;swimlaneBody=0;fillColor=none;collapsible=0;dropTarget=0;points=[[0,0.5],[1,0.5]];portConstraint=eastwest;top=0;left=0;right=0;bottom=0;" parent="2jKcjm-qkLe9Er315lRe-185" vertex="1">
          <mxGeometry y="60" width="243.31" height="30" as="geometry" />
        </mxCell>
        <mxCell id="2jKcjm-qkLe9Er315lRe-190" value="" style="shape=partialRectangle;connectable=0;fillColor=none;top=0;left=0;bottom=0;right=0;editable=1;overflow=hidden;" parent="2jKcjm-qkLe9Er315lRe-189" vertex="1">
          <mxGeometry width="30" height="30" as="geometry">
            <mxRectangle width="30" height="30" as="alternateBounds" />
          </mxGeometry>
        </mxCell>
        <mxCell id="2jKcjm-qkLe9Er315lRe-191" value="role" style="shape=partialRectangle;connectable=0;fillColor=none;top=0;left=0;bottom=0;right=0;align=left;spacingLeft=6;overflow=hidden;" parent="2jKcjm-qkLe9Er315lRe-189" vertex="1">
          <mxGeometry x="30" width="213.31" height="30" as="geometry">
            <mxRectangle width="213.31" height="30" as="alternateBounds" />
          </mxGeometry>
        </mxCell>
        <mxCell id="2jKcjm-qkLe9Er315lRe-192" value="" style="shape=tableRow;horizontal=0;startSize=0;swimlaneHead=0;swimlaneBody=0;fillColor=none;collapsible=0;dropTarget=0;points=[[0,0.5],[1,0.5]];portConstraint=eastwest;top=0;left=0;right=0;bottom=0;" parent="2jKcjm-qkLe9Er315lRe-185" vertex="1">
          <mxGeometry y="90" width="243.31" height="30" as="geometry" />
        </mxCell>
        <mxCell id="2jKcjm-qkLe9Er315lRe-193" value="" style="shape=partialRectangle;connectable=0;fillColor=none;top=0;left=0;bottom=0;right=0;editable=1;overflow=hidden;" parent="2jKcjm-qkLe9Er315lRe-192" vertex="1">
          <mxGeometry width="30" height="30" as="geometry">
            <mxRectangle width="30" height="30" as="alternateBounds" />
          </mxGeometry>
        </mxCell>
        <mxCell id="2jKcjm-qkLe9Er315lRe-194" value="description" style="shape=partialRectangle;connectable=0;fillColor=none;top=0;left=0;bottom=0;right=0;align=left;spacingLeft=6;overflow=hidden;" parent="2jKcjm-qkLe9Er315lRe-192" vertex="1">
          <mxGeometry x="30" width="213.31" height="30" as="geometry">
            <mxRectangle width="213.31" height="30" as="alternateBounds" />
          </mxGeometry>
        </mxCell>
        <mxCell id="g0dB4fThE9D3y6vZpoi5-164" value="" style="group" parent="gNVXbrv3SQmsqr1-LKS6-168" vertex="1" connectable="0">
          <mxGeometry x="1000.2542372881355" y="1398.0608365019011" width="243.31" height="370.5703422053232" as="geometry" />
        </mxCell>
        <mxCell id="g0dB4fThE9D3y6vZpoi5-161" value="" style="group" parent="g0dB4fThE9D3y6vZpoi5-164" vertex="1" connectable="0">
          <mxGeometry width="243.31" height="370.5703422053232" as="geometry" />
        </mxCell>
        <mxCell id="g0dB4fThE9D3y6vZpoi5-129" value="student" style="shape=table;startSize=30;container=1;collapsible=1;childLayout=tableLayout;fixedRows=1;rowLines=0;fontStyle=1;align=center;resizeLast=1;" parent="g0dB4fThE9D3y6vZpoi5-161" vertex="1">
          <mxGeometry width="243.31" height="220" as="geometry" />
        </mxCell>
        <mxCell id="g0dB4fThE9D3y6vZpoi5-130" value="" style="shape=tableRow;horizontal=0;startSize=0;swimlaneHead=0;swimlaneBody=0;fillColor=none;collapsible=0;dropTarget=0;points=[[0,0.5],[1,0.5]];portConstraint=eastwest;top=0;left=0;right=0;bottom=1;" parent="g0dB4fThE9D3y6vZpoi5-129" vertex="1">
          <mxGeometry y="30" width="243.31" height="30" as="geometry" />
        </mxCell>
        <mxCell id="g0dB4fThE9D3y6vZpoi5-131" value="PK" style="shape=partialRectangle;connectable=0;fillColor=none;top=0;left=0;bottom=0;right=0;fontStyle=1;overflow=hidden;" parent="g0dB4fThE9D3y6vZpoi5-130" vertex="1">
          <mxGeometry width="30" height="30" as="geometry">
            <mxRectangle width="30" height="30" as="alternateBounds" />
          </mxGeometry>
        </mxCell>
        <mxCell id="g0dB4fThE9D3y6vZpoi5-132" value="id" style="shape=partialRectangle;connectable=0;fillColor=none;top=0;left=0;bottom=0;right=0;align=left;spacingLeft=6;fontStyle=5;overflow=hidden;" parent="g0dB4fThE9D3y6vZpoi5-130" vertex="1">
          <mxGeometry x="30" width="213.31" height="30" as="geometry">
            <mxRectangle width="213.31" height="30" as="alternateBounds" />
          </mxGeometry>
        </mxCell>
        <mxCell id="g0dB4fThE9D3y6vZpoi5-133" value="" style="shape=tableRow;horizontal=0;startSize=0;swimlaneHead=0;swimlaneBody=0;fillColor=none;collapsible=0;dropTarget=0;points=[[0,0.5],[1,0.5]];portConstraint=eastwest;top=0;left=0;right=0;bottom=0;" parent="g0dB4fThE9D3y6vZpoi5-129" vertex="1">
          <mxGeometry y="60" width="243.31" height="30" as="geometry" />
        </mxCell>
        <mxCell id="g0dB4fThE9D3y6vZpoi5-134" value="" style="shape=partialRectangle;connectable=0;fillColor=none;top=0;left=0;bottom=0;right=0;editable=1;overflow=hidden;" parent="g0dB4fThE9D3y6vZpoi5-133" vertex="1">
          <mxGeometry width="30" height="30" as="geometry">
            <mxRectangle width="30" height="30" as="alternateBounds" />
          </mxGeometry>
        </mxCell>
        <mxCell id="g0dB4fThE9D3y6vZpoi5-135" value="first_name" style="shape=partialRectangle;connectable=0;fillColor=none;top=0;left=0;bottom=0;right=0;align=left;spacingLeft=6;overflow=hidden;" parent="g0dB4fThE9D3y6vZpoi5-133" vertex="1">
          <mxGeometry x="30" width="213.31" height="30" as="geometry">
            <mxRectangle width="213.31" height="30" as="alternateBounds" />
          </mxGeometry>
        </mxCell>
        <mxCell id="g0dB4fThE9D3y6vZpoi5-136" value="" style="shape=tableRow;horizontal=0;startSize=0;swimlaneHead=0;swimlaneBody=0;fillColor=none;collapsible=0;dropTarget=0;points=[[0,0.5],[1,0.5]];portConstraint=eastwest;top=0;left=0;right=0;bottom=0;" parent="g0dB4fThE9D3y6vZpoi5-129" vertex="1">
          <mxGeometry y="90" width="243.31" height="30" as="geometry" />
        </mxCell>
        <mxCell id="g0dB4fThE9D3y6vZpoi5-137" value="" style="shape=partialRectangle;connectable=0;fillColor=none;top=0;left=0;bottom=0;right=0;editable=1;overflow=hidden;" parent="g0dB4fThE9D3y6vZpoi5-136" vertex="1">
          <mxGeometry width="30" height="30" as="geometry">
            <mxRectangle width="30" height="30" as="alternateBounds" />
          </mxGeometry>
        </mxCell>
        <mxCell id="g0dB4fThE9D3y6vZpoi5-138" value="last_name" style="shape=partialRectangle;connectable=0;fillColor=none;top=0;left=0;bottom=0;right=0;align=left;spacingLeft=6;overflow=hidden;" parent="g0dB4fThE9D3y6vZpoi5-136" vertex="1">
          <mxGeometry x="30" width="213.31" height="30" as="geometry">
            <mxRectangle width="213.31" height="30" as="alternateBounds" />
          </mxGeometry>
        </mxCell>
        <mxCell id="g0dB4fThE9D3y6vZpoi5-139" value="" style="shape=tableRow;horizontal=0;startSize=0;swimlaneHead=0;swimlaneBody=0;fillColor=none;collapsible=0;dropTarget=0;points=[[0,0.5],[1,0.5]];portConstraint=eastwest;top=0;left=0;right=0;bottom=0;" parent="g0dB4fThE9D3y6vZpoi5-129" vertex="1">
          <mxGeometry y="120" width="243.31" height="30" as="geometry" />
        </mxCell>
        <mxCell id="g0dB4fThE9D3y6vZpoi5-140" value="FK" style="shape=partialRectangle;connectable=0;fillColor=none;top=0;left=0;bottom=0;right=0;editable=1;overflow=hidden;" parent="g0dB4fThE9D3y6vZpoi5-139" vertex="1">
          <mxGeometry width="30" height="30" as="geometry">
            <mxRectangle width="30" height="30" as="alternateBounds" />
          </mxGeometry>
        </mxCell>
        <mxCell id="g0dB4fThE9D3y6vZpoi5-141" value="group_id" style="shape=partialRectangle;connectable=0;fillColor=none;top=0;left=0;bottom=0;right=0;align=left;spacingLeft=6;overflow=hidden;" parent="g0dB4fThE9D3y6vZpoi5-139" vertex="1">
          <mxGeometry x="30" width="213.31" height="30" as="geometry">
            <mxRectangle width="213.31" height="30" as="alternateBounds" />
          </mxGeometry>
        </mxCell>
        <mxCell id="g0dB4fThE9D3y6vZpoi5-157" value="role_id" style="shape=partialRectangle;fillColor=none;align=left;verticalAlign=middle;strokeColor=none;spacingLeft=34;rotatable=0;points=[[0,0.5],[1,0.5]];portConstraint=eastwest;dropTarget=0;" parent="g0dB4fThE9D3y6vZpoi5-161" vertex="1">
          <mxGeometry y="141.94" width="90" height="43.19" as="geometry" />
        </mxCell>
        <mxCell id="g0dB4fThE9D3y6vZpoi5-158" value="" style="shape=partialRectangle;top=0;left=0;bottom=0;fillColor=none;stokeWidth=1;align=left;verticalAlign=middle;spacingLeft=4;spacingRight=4;overflow=hidden;rotatable=0;points=[];portConstraint=eastwest;part=1;" parent="g0dB4fThE9D3y6vZpoi5-157" vertex="1" connectable="0">
          <mxGeometry width="29.999999999999996" height="43.19" as="geometry" />
        </mxCell>
        <mxCell id="g0dB4fThE9D3y6vZpoi5-162" value="user_id" style="shape=partialRectangle;fillColor=none;align=left;verticalAlign=middle;strokeColor=none;spacingLeft=34;rotatable=0;points=[[0,0.5],[1,0.5]];portConstraint=eastwest;dropTarget=0;" parent="g0dB4fThE9D3y6vZpoi5-161" vertex="1">
          <mxGeometry y="185.13" width="90" height="34.87" as="geometry" />
        </mxCell>
        <mxCell id="g0dB4fThE9D3y6vZpoi5-163" value="FK" style="shape=partialRectangle;top=0;left=0;bottom=0;fillColor=none;stokeWidth=1;align=left;verticalAlign=middle;spacingLeft=4;spacingRight=4;overflow=hidden;rotatable=0;points=[];portConstraint=eastwest;part=1;" parent="g0dB4fThE9D3y6vZpoi5-162" vertex="1" connectable="0">
          <mxGeometry width="29.999999999999996" height="34.87" as="geometry" />
        </mxCell>
        <mxCell id="g0dB4fThE9D3y6vZpoi5-165" value="" style="edgeStyle=entityRelationEdgeStyle;fontSize=12;html=1;endArrow=ERoneToMany;rounded=0;entryX=0;entryY=0.5;entryDx=0;entryDy=0;exitX=1;exitY=0.5;exitDx=0;exitDy=0;" parent="gNVXbrv3SQmsqr1-LKS6-168" source="g0dB4fThE9D3y6vZpoi5-29" target="Uq_rD0HiTpvaq6nW2G_J-8" edge="1">
          <mxGeometry width="100" height="100" relative="1" as="geometry">
            <mxPoint x="2243.7299999999996" y="185" as="sourcePoint" />
            <mxPoint x="1959.873220338983" y="197.9087452471483" as="targetPoint" />
          </mxGeometry>
        </mxCell>
        <mxCell id="g0dB4fThE9D3y6vZpoi5-166" value="" style="edgeStyle=entityRelationEdgeStyle;fontSize=12;html=1;endArrow=ERoneToMany;rounded=0;exitX=1;exitY=0.5;exitDx=0;exitDy=0;" parent="gNVXbrv3SQmsqr1-LKS6-168" source="g0dB4fThE9D3y6vZpoi5-2" edge="1">
          <mxGeometry width="100" height="100" relative="1" as="geometry">
            <mxPoint x="1824.7899999999997" y="190" as="sourcePoint" />
            <mxPoint x="2000.4237288135594" y="190" as="targetPoint" />
          </mxGeometry>
        </mxCell>
        <mxCell id="2jKcjm-qkLe9Er315lRe-234" value="" style="edgeStyle=entityRelationEdgeStyle;fontSize=12;html=1;endArrow=ERmandOne;startArrow=ERmandOne;rounded=0;exitX=1;exitY=0.5;exitDx=0;exitDy=0;entryX=0;entryY=0.5;entryDx=0;entryDy=0;" parent="gNVXbrv3SQmsqr1-LKS6-168" source="2jKcjm-qkLe9Er315lRe-42" target="2jKcjm-qkLe9Er315lRe-53" edge="1">
          <mxGeometry width="100" height="100" relative="1" as="geometry">
            <mxPoint x="1500.3813559322034" y="1246.4638783269963" as="sourcePoint" />
            <mxPoint x="1635.550847457627" y="1078.0228136882129" as="targetPoint" />
          </mxGeometry>
        </mxCell>
        <mxCell id="g0dB4fThE9D3y6vZpoi5-167" value="" style="edgeStyle=entityRelationEdgeStyle;fontSize=12;html=1;endArrow=ERmandOne;startArrow=ERmandOne;rounded=0;entryX=0;entryY=0.5;entryDx=0;entryDy=0;exitX=1;exitY=0.5;exitDx=0;exitDy=0;" parent="gNVXbrv3SQmsqr1-LKS6-168" source="g0dB4fThE9D3y6vZpoi5-61" target="g0dB4fThE9D3y6vZpoi5-68" edge="1">
          <mxGeometry width="100" height="100" relative="1" as="geometry">
            <mxPoint x="1067.8389830508474" y="-117.90874524714829" as="sourcePoint" />
            <mxPoint x="1203.008474576271" y="-286.34980988593156" as="targetPoint" />
          </mxGeometry>
        </mxCell>
        <mxCell id="2jKcjm-qkLe9Er315lRe-235" value="" style="edgeStyle=entityRelationEdgeStyle;fontSize=12;html=1;endArrow=ERoneToMany;rounded=0;entryX=0;entryY=0.5;entryDx=0;entryDy=0;exitX=1;exitY=0.5;exitDx=0;exitDy=0;" parent="gNVXbrv3SQmsqr1-LKS6-168" source="2jKcjm-qkLe9Er315lRe-36" target="2jKcjm-qkLe9Er315lRe-99" edge="1">
          <mxGeometry width="100" height="100" relative="1" as="geometry">
            <mxPoint x="1662.5847457627117" y="1398.0608365019011" as="sourcePoint" />
            <mxPoint x="1797.7542372881355" y="1229.6197718631179" as="targetPoint" />
          </mxGeometry>
        </mxCell>
        <mxCell id="g0dB4fThE9D3y6vZpoi5-168" value="" style="edgeStyle=entityRelationEdgeStyle;fontSize=12;html=1;endArrow=ERmandOne;startArrow=ERmandOne;rounded=0;entryX=0;entryY=0.5;entryDx=0;entryDy=0;exitX=1;exitY=0.5;exitDx=0;exitDy=0;" parent="gNVXbrv3SQmsqr1-LKS6-168" source="g0dB4fThE9D3y6vZpoi5-51" target="g0dB4fThE9D3y6vZpoi5-81" edge="1">
          <mxGeometry width="100" height="100" relative="1" as="geometry">
            <mxPoint x="364.95762711864404" y="623.2319391634982" as="sourcePoint" />
            <mxPoint x="500.12711864406776" y="454.79087452471487" as="targetPoint" />
          </mxGeometry>
        </mxCell>
        <mxCell id="2jKcjm-qkLe9Er315lRe-236" value="" style="edgeStyle=entityRelationEdgeStyle;fontSize=12;html=1;endArrow=ERoneToMany;rounded=0;entryX=0;entryY=0.5;entryDx=0;entryDy=0;" parent="gNVXbrv3SQmsqr1-LKS6-168" source="2jKcjm-qkLe9Er315lRe-153" target="2jKcjm-qkLe9Er315lRe-89" edge="1">
          <mxGeometry width="100" height="100" relative="1" as="geometry">
            <mxPoint x="946.1864406779661" y="943.2699619771863" as="sourcePoint" />
            <mxPoint x="1081.3559322033898" y="774.8288973384031" as="targetPoint" />
          </mxGeometry>
        </mxCell>
        <mxCell id="g0dB4fThE9D3y6vZpoi5-170" value="" style="edgeStyle=entityRelationEdgeStyle;fontSize=12;html=1;endArrow=ERmany;startArrow=ERmany;rounded=0;entryX=0;entryY=0.5;entryDx=0;entryDy=0;" parent="gNVXbrv3SQmsqr1-LKS6-168" target="g0dB4fThE9D3y6vZpoi5-107" edge="1">
          <mxGeometry width="100" height="100" relative="1" as="geometry">
            <mxPoint x="1250.4237288135594" y="1020" as="sourcePoint" />
            <mxPoint x="932.6694915254237" y="859.0494296577947" as="targetPoint" />
          </mxGeometry>
        </mxCell>
        <mxCell id="2jKcjm-qkLe9Er315lRe-238" value="" style="edgeStyle=entityRelationEdgeStyle;fontSize=12;html=1;endArrow=ERoneToMany;rounded=0;entryX=0;entryY=0.5;entryDx=0;entryDy=0;exitX=1;exitY=0.5;exitDx=0;exitDy=0;" parent="gNVXbrv3SQmsqr1-LKS6-168" source="2jKcjm-qkLe9Er315lRe-153" target="2jKcjm-qkLe9Er315lRe-50" edge="1">
          <mxGeometry width="100" height="100" relative="1" as="geometry">
            <mxPoint x="865.0847457627118" y="884.3155893536122" as="sourcePoint" />
            <mxPoint x="959.7033898305084" y="597.9657794676806" as="targetPoint" />
          </mxGeometry>
        </mxCell>
        <mxCell id="g0dB4fThE9D3y6vZpoi5-173" value="" style="edgeStyle=entityRelationEdgeStyle;fontSize=12;html=1;endArrow=ERmandOne;startArrow=ERmandOne;rounded=0;entryX=0;entryY=0.5;entryDx=0;entryDy=0;exitX=1;exitY=0.5;exitDx=0;exitDy=0;" parent="gNVXbrv3SQmsqr1-LKS6-168" source="2jKcjm-qkLe9Er315lRe-106" target="g0dB4fThE9D3y6vZpoi5-97" edge="1">
          <mxGeometry width="100" height="100" relative="1" as="geometry">
            <mxPoint x="635.2966101694915" y="1600.190114068441" as="sourcePoint" />
            <mxPoint x="770.4661016949152" y="1431.7490494296578" as="targetPoint" />
          </mxGeometry>
        </mxCell>
        <mxCell id="g0dB4fThE9D3y6vZpoi5-174" value="" style="edgeStyle=entityRelationEdgeStyle;fontSize=12;html=1;endArrow=ERmandOne;startArrow=ERmandOne;rounded=0;exitX=1;exitY=0.5;exitDx=0;exitDy=0;" parent="gNVXbrv3SQmsqr1-LKS6-168" source="2jKcjm-qkLe9Er315lRe-106" target="g0dB4fThE9D3y6vZpoi5-162" edge="1">
          <mxGeometry width="100" height="100" relative="1" as="geometry">
            <mxPoint x="594.7457627118644" y="1903.384030418251" as="sourcePoint" />
            <mxPoint x="729.9152542372881" y="1734.9429657794678" as="targetPoint" />
          </mxGeometry>
        </mxCell>
        <mxCell id="2jKcjm-qkLe9Er315lRe-245" value="" style="edgeStyle=entityRelationEdgeStyle;fontSize=12;html=1;endArrow=ERoneToMany;rounded=0;exitX=1;exitY=0.5;exitDx=0;exitDy=0;entryX=0;entryY=0.5;entryDx=0;entryDy=0;" parent="gNVXbrv3SQmsqr1-LKS6-168" source="g0dB4fThE9D3y6vZpoi5-81" target="g0dB4fThE9D3y6vZpoi5-139" edge="1">
          <mxGeometry width="100" height="100" relative="1" as="geometry">
            <mxPoint x="824.5338983050847" y="1296.9961977186313" as="sourcePoint" />
            <mxPoint x="959.7033898305084" y="1128.555133079848" as="targetPoint" />
          </mxGeometry>
        </mxCell>
        <mxCell id="2jKcjm-qkLe9Er315lRe-248" value="" style="edgeStyle=entityRelationEdgeStyle;fontSize=12;html=1;endArrow=ERmandOne;startArrow=ERmandOne;rounded=0;exitX=0;exitY=0.5;exitDx=0;exitDy=0;entryX=1;entryY=0.75;entryDx=0;entryDy=0;" parent="gNVXbrv3SQmsqr1-LKS6-168" source="2jKcjm-qkLe9Er315lRe-186" target="g0dB4fThE9D3y6vZpoi5-129" edge="1">
          <mxGeometry width="100" height="100" relative="1" as="geometry">
            <mxPoint x="608.2627118644068" y="1903.384030418251" as="sourcePoint" />
            <mxPoint x="743.4322033898305" y="1734.9429657794678" as="targetPoint" />
          </mxGeometry>
        </mxCell>
        <mxCell id="2jKcjm-qkLe9Er315lRe-251" value="" style="group" parent="gNVXbrv3SQmsqr1-LKS6-168" connectable="0" vertex="1">
          <mxGeometry y="993.8022813688214" width="250" height="202.12927756653994" as="geometry" />
        </mxCell>
        <mxCell id="2jKcjm-qkLe9Er315lRe-118" value="lead" style="shape=table;startSize=30;container=1;collapsible=1;childLayout=tableLayout;fixedRows=1;rowLines=0;fontStyle=1;align=center;resizeLast=1;" parent="2jKcjm-qkLe9Er315lRe-251" vertex="1">
          <mxGeometry width="250" height="100" as="geometry" />
        </mxCell>
        <mxCell id="2jKcjm-qkLe9Er315lRe-119" value="" style="shape=tableRow;horizontal=0;startSize=0;swimlaneHead=0;swimlaneBody=0;fillColor=none;collapsible=0;dropTarget=0;points=[[0,0.5],[1,0.5]];portConstraint=eastwest;top=0;left=0;right=0;bottom=1;" parent="2jKcjm-qkLe9Er315lRe-118" vertex="1">
          <mxGeometry y="30" width="250" height="30" as="geometry" />
        </mxCell>
        <mxCell id="2jKcjm-qkLe9Er315lRe-120" value="PK" style="shape=partialRectangle;connectable=0;fillColor=none;top=0;left=0;bottom=0;right=0;fontStyle=1;overflow=hidden;" parent="2jKcjm-qkLe9Er315lRe-119" vertex="1">
          <mxGeometry width="30" height="30" as="geometry">
            <mxRectangle width="30" height="30" as="alternateBounds" />
          </mxGeometry>
        </mxCell>
        <mxCell id="2jKcjm-qkLe9Er315lRe-121" value="id" style="shape=partialRectangle;connectable=0;fillColor=none;top=0;left=0;bottom=0;right=0;align=left;spacingLeft=6;fontStyle=5;overflow=hidden;" parent="2jKcjm-qkLe9Er315lRe-119" vertex="1">
          <mxGeometry x="30" width="220" height="30" as="geometry">
            <mxRectangle width="220" height="30" as="alternateBounds" />
          </mxGeometry>
        </mxCell>
        <mxCell id="2jKcjm-qkLe9Er315lRe-122" value="" style="shape=tableRow;horizontal=0;startSize=0;swimlaneHead=0;swimlaneBody=0;fillColor=none;collapsible=0;dropTarget=0;points=[[0,0.5],[1,0.5]];portConstraint=eastwest;top=0;left=0;right=0;bottom=0;" parent="2jKcjm-qkLe9Er315lRe-118" vertex="1">
          <mxGeometry y="60" width="250" height="30" as="geometry" />
        </mxCell>
        <mxCell id="2jKcjm-qkLe9Er315lRe-123" value="" style="shape=partialRectangle;connectable=0;fillColor=none;top=0;left=0;bottom=0;right=0;editable=1;overflow=hidden;" parent="2jKcjm-qkLe9Er315lRe-122" vertex="1">
          <mxGeometry width="30" height="30" as="geometry">
            <mxRectangle width="30" height="30" as="alternateBounds" />
          </mxGeometry>
        </mxCell>
        <mxCell id="2jKcjm-qkLe9Er315lRe-124" value="lead_name" style="shape=partialRectangle;connectable=0;fillColor=none;top=0;left=0;bottom=0;right=0;align=left;spacingLeft=6;overflow=hidden;" parent="2jKcjm-qkLe9Er315lRe-122" vertex="1">
          <mxGeometry x="30" width="220" height="30" as="geometry">
            <mxRectangle width="220" height="30" as="alternateBounds" />
          </mxGeometry>
        </mxCell>
        <mxCell id="2jKcjm-qkLe9Er315lRe-256" value="" style="edgeStyle=entityRelationEdgeStyle;fontSize=12;html=1;endArrow=ERmany;startArrow=ERmany;rounded=0;exitX=1;exitY=0.5;exitDx=0;exitDy=0;entryX=0;entryY=0.5;entryDx=0;entryDy=0;" parent="gNVXbrv3SQmsqr1-LKS6-168" source="g0dB4fThE9D3y6vZpoi5-81" target="2jKcjm-qkLe9Er315lRe-253" edge="1">
          <mxGeometry width="100" height="100" relative="1" as="geometry">
            <mxPoint x="838.0508474576271" y="151.59695817490496" as="sourcePoint" />
            <mxPoint x="973.2203389830509" y="-16.844106463878326" as="targetPoint" />
          </mxGeometry>
        </mxCell>
        <mxCell id="cGp71r1Axj7DgGVdJ9gu-6" value="" style="edgeStyle=entityRelationEdgeStyle;fontSize=12;html=1;endArrow=ERmandOne;startArrow=ERmandOne;rounded=0;entryX=0;entryY=0.5;entryDx=0;entryDy=0;exitX=1;exitY=0.5;exitDx=0;exitDy=0;" parent="gNVXbrv3SQmsqr1-LKS6-168" source="2jKcjm-qkLe9Er315lRe-153" target="g0dB4fThE9D3y6vZpoi5-5" edge="1">
          <mxGeometry width="100" height="100" relative="1" as="geometry">
            <mxPoint x="932.6694915254237" y="564.277566539924" as="sourcePoint" />
            <mxPoint x="1067.8389830508474" y="395.8365019011407" as="targetPoint" />
          </mxGeometry>
        </mxCell>
        <mxCell id="2jKcjm-qkLe9Er315lRe-262" value="" style="group" parent="gNVXbrv3SQmsqr1-LKS6-168" connectable="0" vertex="1">
          <mxGeometry x="1595" y="437.9467680608365" width="243.31" height="252.66159695817493" as="geometry" />
        </mxCell>
        <mxCell id="2jKcjm-qkLe9Er315lRe-2" value="page" style="shape=table;startSize=30;container=1;collapsible=1;childLayout=tableLayout;fixedRows=1;rowLines=0;fontStyle=1;align=center;resizeLast=1;" parent="2jKcjm-qkLe9Er315lRe-262" vertex="1">
          <mxGeometry width="243.31" height="170" as="geometry" />
        </mxCell>
        <mxCell id="2jKcjm-qkLe9Er315lRe-3" value="" style="shape=tableRow;horizontal=0;startSize=0;swimlaneHead=0;swimlaneBody=0;fillColor=none;collapsible=0;dropTarget=0;points=[[0,0.5],[1,0.5]];portConstraint=eastwest;top=0;left=0;right=0;bottom=1;" parent="2jKcjm-qkLe9Er315lRe-2" vertex="1">
          <mxGeometry y="30" width="243.31" height="30" as="geometry" />
        </mxCell>
        <mxCell id="2jKcjm-qkLe9Er315lRe-4" value="PK" style="shape=partialRectangle;connectable=0;fillColor=none;top=0;left=0;bottom=0;right=0;fontStyle=1;overflow=hidden;" parent="2jKcjm-qkLe9Er315lRe-3" vertex="1">
          <mxGeometry width="30" height="30" as="geometry">
            <mxRectangle width="30" height="30" as="alternateBounds" />
          </mxGeometry>
        </mxCell>
        <mxCell id="2jKcjm-qkLe9Er315lRe-5" value="id" style="shape=partialRectangle;connectable=0;fillColor=none;top=0;left=0;bottom=0;right=0;align=left;spacingLeft=6;fontStyle=5;overflow=hidden;" parent="2jKcjm-qkLe9Er315lRe-3" vertex="1">
          <mxGeometry x="30" width="213.31" height="30" as="geometry">
            <mxRectangle width="213.31" height="30" as="alternateBounds" />
          </mxGeometry>
        </mxCell>
        <mxCell id="2jKcjm-qkLe9Er315lRe-9" value="" style="shape=tableRow;horizontal=0;startSize=0;swimlaneHead=0;swimlaneBody=0;fillColor=none;collapsible=0;dropTarget=0;points=[[0,0.5],[1,0.5]];portConstraint=eastwest;top=0;left=0;right=0;bottom=0;" parent="2jKcjm-qkLe9Er315lRe-2" vertex="1">
          <mxGeometry y="60" width="243.31" height="30" as="geometry" />
        </mxCell>
        <mxCell id="2jKcjm-qkLe9Er315lRe-10" value="FK" style="shape=partialRectangle;connectable=0;fillColor=none;top=0;left=0;bottom=0;right=0;editable=1;overflow=hidden;" parent="2jKcjm-qkLe9Er315lRe-9" vertex="1">
          <mxGeometry width="30" height="30" as="geometry">
            <mxRectangle width="30" height="30" as="alternateBounds" />
          </mxGeometry>
        </mxCell>
        <mxCell id="2jKcjm-qkLe9Er315lRe-11" value="subject_id" style="shape=partialRectangle;connectable=0;fillColor=none;top=0;left=0;bottom=0;right=0;align=left;spacingLeft=6;overflow=hidden;" parent="2jKcjm-qkLe9Er315lRe-9" vertex="1">
          <mxGeometry x="30" width="213.31" height="30" as="geometry">
            <mxRectangle width="213.31" height="30" as="alternateBounds" />
          </mxGeometry>
        </mxCell>
        <mxCell id="2jKcjm-qkLe9Er315lRe-12" value="" style="shape=tableRow;horizontal=0;startSize=0;swimlaneHead=0;swimlaneBody=0;fillColor=none;collapsible=0;dropTarget=0;points=[[0,0.5],[1,0.5]];portConstraint=eastwest;top=0;left=0;right=0;bottom=0;" parent="2jKcjm-qkLe9Er315lRe-2" vertex="1">
          <mxGeometry y="90" width="243.31" height="30" as="geometry" />
        </mxCell>
        <mxCell id="2jKcjm-qkLe9Er315lRe-13" value="" style="shape=partialRectangle;connectable=0;fillColor=none;top=0;left=0;bottom=0;right=0;editable=1;overflow=hidden;" parent="2jKcjm-qkLe9Er315lRe-12" vertex="1">
          <mxGeometry width="30" height="30" as="geometry">
            <mxRectangle width="30" height="30" as="alternateBounds" />
          </mxGeometry>
        </mxCell>
        <mxCell id="2jKcjm-qkLe9Er315lRe-14" value="link" style="shape=partialRectangle;connectable=0;fillColor=none;top=0;left=0;bottom=0;right=0;align=left;spacingLeft=6;overflow=hidden;" parent="2jKcjm-qkLe9Er315lRe-12" vertex="1">
          <mxGeometry x="30" width="213.31" height="30" as="geometry">
            <mxRectangle width="213.31" height="30" as="alternateBounds" />
          </mxGeometry>
        </mxCell>
        <mxCell id="2jKcjm-qkLe9Er315lRe-260" value="attachments" style="shape=partialRectangle;fillColor=none;align=left;verticalAlign=middle;strokeColor=none;spacingLeft=34;rotatable=0;points=[[0,0.5],[1,0.5]];portConstraint=eastwest;dropTarget=0;" parent="2jKcjm-qkLe9Er315lRe-262" vertex="1">
          <mxGeometry y="112.05" width="90" height="50.53" as="geometry" />
        </mxCell>
        <mxCell id="2jKcjm-qkLe9Er315lRe-261" value="" style="shape=partialRectangle;top=0;left=0;bottom=0;fillColor=none;stokeWidth=1;align=left;verticalAlign=middle;spacingLeft=4;spacingRight=4;overflow=hidden;rotatable=0;points=[];portConstraint=eastwest;part=1;" parent="2jKcjm-qkLe9Er315lRe-260" connectable="0" vertex="1">
          <mxGeometry width="29.999999999999996" height="50.53" as="geometry" />
        </mxCell>
        <mxCell id="2jKcjm-qkLe9Er315lRe-237" value="" style="edgeStyle=entityRelationEdgeStyle;fontSize=12;html=1;endArrow=ERoneToMany;rounded=0;exitX=1;exitY=0.5;exitDx=0;exitDy=0;entryX=0;entryY=0.5;entryDx=0;entryDy=0;" parent="gNVXbrv3SQmsqr1-LKS6-168" source="2jKcjm-qkLe9Er315lRe-153" target="2jKcjm-qkLe9Er315lRe-9" edge="1">
          <mxGeometry width="100" height="100" relative="1" as="geometry">
            <mxPoint x="797.5" y="1254.8859315589355" as="sourcePoint" />
            <mxPoint x="892.1186440677966" y="968.5361216730039" as="targetPoint" />
          </mxGeometry>
        </mxCell>
        <mxCell id="2jKcjm-qkLe9Er315lRe-230" value="" style="group" parent="gNVXbrv3SQmsqr1-LKS6-168" connectable="0" vertex="1">
          <mxGeometry x="986.7372881355932" y="859.0494296577947" width="260" height="320.0380228136882" as="geometry" />
        </mxCell>
        <mxCell id="2jKcjm-qkLe9Er315lRe-152" value="subject" style="shape=table;startSize=30;container=1;collapsible=1;childLayout=tableLayout;fixedRows=1;rowLines=0;fontStyle=1;align=center;resizeLast=1;" parent="2jKcjm-qkLe9Er315lRe-230" vertex="1">
          <mxGeometry x="27.03" width="232.97" height="180" as="geometry" />
        </mxCell>
        <mxCell id="2jKcjm-qkLe9Er315lRe-153" value="" style="shape=tableRow;horizontal=0;startSize=0;swimlaneHead=0;swimlaneBody=0;fillColor=none;collapsible=0;dropTarget=0;points=[[0,0.5],[1,0.5]];portConstraint=eastwest;top=0;left=0;right=0;bottom=1;" parent="2jKcjm-qkLe9Er315lRe-152" vertex="1">
          <mxGeometry y="30" width="232.97" height="30" as="geometry" />
        </mxCell>
        <mxCell id="2jKcjm-qkLe9Er315lRe-154" value="PK" style="shape=partialRectangle;connectable=0;fillColor=none;top=0;left=0;bottom=0;right=0;fontStyle=1;overflow=hidden;" parent="2jKcjm-qkLe9Er315lRe-153" vertex="1">
          <mxGeometry width="30" height="30" as="geometry">
            <mxRectangle width="30" height="30" as="alternateBounds" />
          </mxGeometry>
        </mxCell>
        <mxCell id="2jKcjm-qkLe9Er315lRe-155" value="id" style="shape=partialRectangle;connectable=0;fillColor=none;top=0;left=0;bottom=0;right=0;align=left;spacingLeft=6;fontStyle=5;overflow=hidden;" parent="2jKcjm-qkLe9Er315lRe-153" vertex="1">
          <mxGeometry x="30" width="202.97" height="30" as="geometry">
            <mxRectangle width="202.97" height="30" as="alternateBounds" />
          </mxGeometry>
        </mxCell>
        <mxCell id="2jKcjm-qkLe9Er315lRe-156" value="" style="shape=tableRow;horizontal=0;startSize=0;swimlaneHead=0;swimlaneBody=0;fillColor=none;collapsible=0;dropTarget=0;points=[[0,0.5],[1,0.5]];portConstraint=eastwest;top=0;left=0;right=0;bottom=0;" parent="2jKcjm-qkLe9Er315lRe-152" vertex="1">
          <mxGeometry y="60" width="232.97" height="30" as="geometry" />
        </mxCell>
        <mxCell id="2jKcjm-qkLe9Er315lRe-157" value="" style="shape=partialRectangle;connectable=0;fillColor=none;top=0;left=0;bottom=0;right=0;editable=1;overflow=hidden;" parent="2jKcjm-qkLe9Er315lRe-156" vertex="1">
          <mxGeometry width="30" height="30" as="geometry">
            <mxRectangle width="30" height="30" as="alternateBounds" />
          </mxGeometry>
        </mxCell>
        <mxCell id="2jKcjm-qkLe9Er315lRe-158" value="subject_name" style="shape=partialRectangle;connectable=0;fillColor=none;top=0;left=0;bottom=0;right=0;align=left;spacingLeft=6;overflow=hidden;" parent="2jKcjm-qkLe9Er315lRe-156" vertex="1">
          <mxGeometry x="30" width="202.97" height="30" as="geometry">
            <mxRectangle width="202.97" height="30" as="alternateBounds" />
          </mxGeometry>
        </mxCell>
        <mxCell id="2jKcjm-qkLe9Er315lRe-159" value="" style="shape=tableRow;horizontal=0;startSize=0;swimlaneHead=0;swimlaneBody=0;fillColor=none;collapsible=0;dropTarget=0;points=[[0,0.5],[1,0.5]];portConstraint=eastwest;top=0;left=0;right=0;bottom=0;" parent="2jKcjm-qkLe9Er315lRe-152" vertex="1">
          <mxGeometry y="90" width="232.97" height="30" as="geometry" />
        </mxCell>
        <mxCell id="2jKcjm-qkLe9Er315lRe-160" value="FK" style="shape=partialRectangle;connectable=0;fillColor=none;top=0;left=0;bottom=0;right=0;editable=1;overflow=hidden;" parent="2jKcjm-qkLe9Er315lRe-159" vertex="1">
          <mxGeometry width="30" height="30" as="geometry">
            <mxRectangle width="30" height="30" as="alternateBounds" />
          </mxGeometry>
        </mxCell>
        <mxCell id="2jKcjm-qkLe9Er315lRe-161" value="group_id" style="shape=partialRectangle;connectable=0;fillColor=none;top=0;left=0;bottom=0;right=0;align=left;spacingLeft=6;overflow=hidden;" parent="2jKcjm-qkLe9Er315lRe-159" vertex="1">
          <mxGeometry x="30" width="202.97" height="30" as="geometry">
            <mxRectangle width="202.97" height="30" as="alternateBounds" />
          </mxGeometry>
        </mxCell>
        <mxCell id="2jKcjm-qkLe9Er315lRe-162" value="" style="shape=tableRow;horizontal=0;startSize=0;swimlaneHead=0;swimlaneBody=0;fillColor=none;collapsible=0;dropTarget=0;points=[[0,0.5],[1,0.5]];portConstraint=eastwest;top=0;left=0;right=0;bottom=0;" parent="2jKcjm-qkLe9Er315lRe-152" vertex="1">
          <mxGeometry y="120" width="232.97" height="30" as="geometry" />
        </mxCell>
        <mxCell id="2jKcjm-qkLe9Er315lRe-163" value="" style="shape=partialRectangle;connectable=0;fillColor=none;top=0;left=0;bottom=0;right=0;editable=1;overflow=hidden;" parent="2jKcjm-qkLe9Er315lRe-162" vertex="1">
          <mxGeometry width="30" height="30" as="geometry">
            <mxRectangle width="30" height="30" as="alternateBounds" />
          </mxGeometry>
        </mxCell>
        <mxCell id="2jKcjm-qkLe9Er315lRe-164" value="semester" style="shape=partialRectangle;connectable=0;fillColor=none;top=0;left=0;bottom=0;right=0;align=left;spacingLeft=6;overflow=hidden;" parent="2jKcjm-qkLe9Er315lRe-162" vertex="1">
          <mxGeometry x="30" width="202.97" height="30" as="geometry">
            <mxRectangle width="202.97" height="30" as="alternateBounds" />
          </mxGeometry>
        </mxCell>
        <mxCell id="2jKcjm-qkLe9Er315lRe-168" value="tutor_id" style="shape=partialRectangle;fillColor=none;align=left;verticalAlign=middle;strokeColor=none;spacingLeft=34;rotatable=0;points=[[0,0.5],[1,0.5]];portConstraint=eastwest;dropTarget=0;" parent="2jKcjm-qkLe9Er315lRe-230" vertex="1">
          <mxGeometry x="33.69" y="145.02" width="140" height="30" as="geometry" />
        </mxCell>
        <mxCell id="2jKcjm-qkLe9Er315lRe-169" value="FK" style="shape=partialRectangle;top=0;left=0;bottom=0;fillColor=none;stokeWidth=1;align=left;verticalAlign=middle;spacingLeft=4;spacingRight=4;overflow=hidden;rotatable=0;points=[];portConstraint=eastwest;part=1;" parent="2jKcjm-qkLe9Er315lRe-168" connectable="0" vertex="1">
          <mxGeometry x="-10" width="33.33" height="30" as="geometry" />
        </mxCell>
        <mxCell id="g0dB4fThE9D3y6vZpoi5-80" value="group" style="shape=table;startSize=30;container=1;collapsible=1;childLayout=tableLayout;fixedRows=1;rowLines=0;fontStyle=1;align=center;resizeLast=1;" parent="gNVXbrv3SQmsqr1-LKS6-168" vertex="1">
          <mxGeometry x="527.16" y="892.74" width="243.31" height="157.26" as="geometry" />
        </mxCell>
        <mxCell id="g0dB4fThE9D3y6vZpoi5-81" value="" style="shape=tableRow;horizontal=0;startSize=0;swimlaneHead=0;swimlaneBody=0;fillColor=none;collapsible=0;dropTarget=0;points=[[0,0.5],[1,0.5]];portConstraint=eastwest;top=0;left=0;right=0;bottom=1;" parent="g0dB4fThE9D3y6vZpoi5-80" vertex="1">
          <mxGeometry y="30" width="243.31" height="30" as="geometry" />
        </mxCell>
        <mxCell id="g0dB4fThE9D3y6vZpoi5-82" value="PK" style="shape=partialRectangle;connectable=0;fillColor=none;top=0;left=0;bottom=0;right=0;fontStyle=1;overflow=hidden;" parent="g0dB4fThE9D3y6vZpoi5-81" vertex="1">
          <mxGeometry width="30" height="30" as="geometry">
            <mxRectangle width="30" height="30" as="alternateBounds" />
          </mxGeometry>
        </mxCell>
        <mxCell id="g0dB4fThE9D3y6vZpoi5-83" value="id" style="shape=partialRectangle;connectable=0;fillColor=none;top=0;left=0;bottom=0;right=0;align=left;spacingLeft=6;fontStyle=5;overflow=hidden;" parent="g0dB4fThE9D3y6vZpoi5-81" vertex="1">
          <mxGeometry x="30" width="213.31" height="30" as="geometry">
            <mxRectangle width="213.31" height="30" as="alternateBounds" />
          </mxGeometry>
        </mxCell>
        <mxCell id="g0dB4fThE9D3y6vZpoi5-84" value="" style="shape=tableRow;horizontal=0;startSize=0;swimlaneHead=0;swimlaneBody=0;fillColor=none;collapsible=0;dropTarget=0;points=[[0,0.5],[1,0.5]];portConstraint=eastwest;top=0;left=0;right=0;bottom=0;" parent="g0dB4fThE9D3y6vZpoi5-80" vertex="1">
          <mxGeometry y="60" width="243.31" height="30" as="geometry" />
        </mxCell>
        <mxCell id="g0dB4fThE9D3y6vZpoi5-85" value="" style="shape=partialRectangle;connectable=0;fillColor=none;top=0;left=0;bottom=0;right=0;editable=1;overflow=hidden;" parent="g0dB4fThE9D3y6vZpoi5-84" vertex="1">
          <mxGeometry width="30" height="30" as="geometry">
            <mxRectangle width="30" height="30" as="alternateBounds" />
          </mxGeometry>
        </mxCell>
        <mxCell id="g0dB4fThE9D3y6vZpoi5-86" value="group_name" style="shape=partialRectangle;connectable=0;fillColor=none;top=0;left=0;bottom=0;right=0;align=left;spacingLeft=6;overflow=hidden;" parent="g0dB4fThE9D3y6vZpoi5-84" vertex="1">
          <mxGeometry x="30" width="213.31" height="30" as="geometry">
            <mxRectangle width="213.31" height="30" as="alternateBounds" />
          </mxGeometry>
        </mxCell>
        <mxCell id="g0dB4fThE9D3y6vZpoi5-87" value="" style="shape=tableRow;horizontal=0;startSize=0;swimlaneHead=0;swimlaneBody=0;fillColor=none;collapsible=0;dropTarget=0;points=[[0,0.5],[1,0.5]];portConstraint=eastwest;top=0;left=0;right=0;bottom=0;" parent="g0dB4fThE9D3y6vZpoi5-80" vertex="1">
          <mxGeometry y="90" width="243.31" height="30" as="geometry" />
        </mxCell>
        <mxCell id="g0dB4fThE9D3y6vZpoi5-88" value="FK" style="shape=partialRectangle;connectable=0;fillColor=none;top=0;left=0;bottom=0;right=0;editable=1;overflow=hidden;" parent="g0dB4fThE9D3y6vZpoi5-87" vertex="1">
          <mxGeometry width="30" height="30" as="geometry">
            <mxRectangle width="30" height="30" as="alternateBounds" />
          </mxGeometry>
        </mxCell>
        <mxCell id="g0dB4fThE9D3y6vZpoi5-89" value="lead_id" style="shape=partialRectangle;connectable=0;fillColor=none;top=0;left=0;bottom=0;right=0;align=left;spacingLeft=6;overflow=hidden;" parent="g0dB4fThE9D3y6vZpoi5-87" vertex="1">
          <mxGeometry x="30" width="213.31" height="30" as="geometry">
            <mxRectangle width="213.31" height="30" as="alternateBounds" />
          </mxGeometry>
        </mxCell>
        <mxCell id="g0dB4fThE9D3y6vZpoi5-90" value="" style="shape=tableRow;horizontal=0;startSize=0;swimlaneHead=0;swimlaneBody=0;fillColor=none;collapsible=0;dropTarget=0;points=[[0,0.5],[1,0.5]];portConstraint=eastwest;top=0;left=0;right=0;bottom=0;" parent="g0dB4fThE9D3y6vZpoi5-80" vertex="1">
          <mxGeometry y="120" width="243.31" height="30" as="geometry" />
        </mxCell>
        <mxCell id="g0dB4fThE9D3y6vZpoi5-91" value="" style="shape=partialRectangle;connectable=0;fillColor=none;top=0;left=0;bottom=0;right=0;editable=1;overflow=hidden;" parent="g0dB4fThE9D3y6vZpoi5-90" vertex="1">
          <mxGeometry width="30" height="30" as="geometry">
            <mxRectangle width="30" height="30" as="alternateBounds" />
          </mxGeometry>
        </mxCell>
        <mxCell id="g0dB4fThE9D3y6vZpoi5-92" value="" style="shape=partialRectangle;connectable=0;fillColor=none;top=0;left=0;bottom=0;right=0;align=left;spacingLeft=6;overflow=hidden;" parent="g0dB4fThE9D3y6vZpoi5-90" vertex="1">
          <mxGeometry x="30" width="213.31" height="30" as="geometry">
            <mxRectangle width="213.31" height="30" as="alternateBounds" />
          </mxGeometry>
        </mxCell>
        <mxCell id="2jKcjm-qkLe9Er315lRe-247" value="" style="edgeStyle=entityRelationEdgeStyle;fontSize=12;html=1;endArrow=ERmandOne;startArrow=ERmandOne;rounded=0;exitX=1;exitY=0.5;exitDx=0;exitDy=0;entryX=0;entryY=0.5;entryDx=0;entryDy=0;" parent="gNVXbrv3SQmsqr1-LKS6-168" source="2jKcjm-qkLe9Er315lRe-119" target="g0dB4fThE9D3y6vZpoi5-87" edge="1">
          <mxGeometry width="100" height="100" relative="1" as="geometry">
            <mxPoint x="513.6440677966101" y="875.893536121673" as="sourcePoint" />
            <mxPoint x="648.8135593220338" y="707.4524714828898" as="targetPoint" />
          </mxGeometry>
        </mxCell>
        <mxCell id="2jKcjm-qkLe9Er315lRe-259" value="" style="edgeStyle=entityRelationEdgeStyle;fontSize=12;html=1;endArrow=ERoneToMany;rounded=0;exitX=1;exitY=0.5;exitDx=0;exitDy=0;entryX=0;entryY=0.5;entryDx=0;entryDy=0;" parent="gNVXbrv3SQmsqr1-LKS6-168" source="g0dB4fThE9D3y6vZpoi5-81" target="2jKcjm-qkLe9Er315lRe-159" edge="1">
          <mxGeometry width="100" height="100" relative="1" as="geometry">
            <mxPoint x="1175.9745762711864" y="892.7376425855514" as="sourcePoint" />
            <mxPoint x="1311.1440677966102" y="724.2965779467681" as="targetPoint" />
          </mxGeometry>
        </mxCell>
        <mxCell id="g0dB4fThE9D3y6vZpoi5-54" value="event" style="shape=table;startSize=30;container=1;collapsible=1;childLayout=tableLayout;fixedRows=1;rowLines=0;fontStyle=1;align=center;resizeLast=1;" parent="gNVXbrv3SQmsqr1-LKS6-168" vertex="1">
          <mxGeometry x="40.55084745762713" y="80.00053231939162" width="230" height="200" as="geometry" />
        </mxCell>
        <mxCell id="g0dB4fThE9D3y6vZpoi5-55" value="" style="shape=tableRow;horizontal=0;startSize=0;swimlaneHead=0;swimlaneBody=0;fillColor=none;collapsible=0;dropTarget=0;points=[[0,0.5],[1,0.5]];portConstraint=eastwest;top=0;left=0;right=0;bottom=1;" parent="g0dB4fThE9D3y6vZpoi5-54" vertex="1">
          <mxGeometry y="30" width="230" height="30" as="geometry" />
        </mxCell>
        <mxCell id="g0dB4fThE9D3y6vZpoi5-56" value="PK" style="shape=partialRectangle;connectable=0;fillColor=none;top=0;left=0;bottom=0;right=0;fontStyle=1;overflow=hidden;" parent="g0dB4fThE9D3y6vZpoi5-55" vertex="1">
          <mxGeometry width="30" height="30" as="geometry">
            <mxRectangle width="30" height="30" as="alternateBounds" />
          </mxGeometry>
        </mxCell>
        <mxCell id="g0dB4fThE9D3y6vZpoi5-57" value="id" style="shape=partialRectangle;connectable=0;fillColor=none;top=0;left=0;bottom=0;right=0;align=left;spacingLeft=6;fontStyle=5;overflow=hidden;" parent="g0dB4fThE9D3y6vZpoi5-55" vertex="1">
          <mxGeometry x="30" width="200" height="30" as="geometry">
            <mxRectangle width="200" height="30" as="alternateBounds" />
          </mxGeometry>
        </mxCell>
        <mxCell id="g0dB4fThE9D3y6vZpoi5-58" value="" style="shape=tableRow;horizontal=0;startSize=0;swimlaneHead=0;swimlaneBody=0;fillColor=none;collapsible=0;dropTarget=0;points=[[0,0.5],[1,0.5]];portConstraint=eastwest;top=0;left=0;right=0;bottom=0;" parent="g0dB4fThE9D3y6vZpoi5-54" vertex="1">
          <mxGeometry y="60" width="230" height="30" as="geometry" />
        </mxCell>
        <mxCell id="g0dB4fThE9D3y6vZpoi5-59" value="" style="shape=partialRectangle;connectable=0;fillColor=none;top=0;left=0;bottom=0;right=0;editable=1;overflow=hidden;" parent="g0dB4fThE9D3y6vZpoi5-58" vertex="1">
          <mxGeometry width="30" height="30" as="geometry">
            <mxRectangle width="30" height="30" as="alternateBounds" />
          </mxGeometry>
        </mxCell>
        <mxCell id="g0dB4fThE9D3y6vZpoi5-60" value="event_date" style="shape=partialRectangle;connectable=0;fillColor=none;top=0;left=0;bottom=0;right=0;align=left;spacingLeft=6;overflow=hidden;" parent="g0dB4fThE9D3y6vZpoi5-58" vertex="1">
          <mxGeometry x="30" width="200" height="30" as="geometry">
            <mxRectangle width="200" height="30" as="alternateBounds" />
          </mxGeometry>
        </mxCell>
        <mxCell id="g0dB4fThE9D3y6vZpoi5-61" value="" style="shape=tableRow;horizontal=0;startSize=0;swimlaneHead=0;swimlaneBody=0;fillColor=none;collapsible=0;dropTarget=0;points=[[0,0.5],[1,0.5]];portConstraint=eastwest;top=0;left=0;right=0;bottom=0;" parent="g0dB4fThE9D3y6vZpoi5-54" vertex="1">
          <mxGeometry y="90" width="230" height="30" as="geometry" />
        </mxCell>
        <mxCell id="g0dB4fThE9D3y6vZpoi5-62" value="FK" style="shape=partialRectangle;connectable=0;fillColor=none;top=0;left=0;bottom=0;right=0;editable=1;overflow=hidden;" parent="g0dB4fThE9D3y6vZpoi5-61" vertex="1">
          <mxGeometry width="30" height="30" as="geometry">
            <mxRectangle width="30" height="30" as="alternateBounds" />
          </mxGeometry>
        </mxCell>
        <mxCell id="g0dB4fThE9D3y6vZpoi5-63" value="event_priority_id" style="shape=partialRectangle;connectable=0;fillColor=none;top=0;left=0;bottom=0;right=0;align=left;spacingLeft=6;overflow=hidden;" parent="g0dB4fThE9D3y6vZpoi5-61" vertex="1">
          <mxGeometry x="30" width="200" height="30" as="geometry">
            <mxRectangle width="200" height="30" as="alternateBounds" />
          </mxGeometry>
        </mxCell>
        <mxCell id="g0dB4fThE9D3y6vZpoi5-64" value="" style="shape=tableRow;horizontal=0;startSize=0;swimlaneHead=0;swimlaneBody=0;fillColor=none;collapsible=0;dropTarget=0;points=[[0,0.5],[1,0.5]];portConstraint=eastwest;top=0;left=0;right=0;bottom=0;" parent="g0dB4fThE9D3y6vZpoi5-54" vertex="1">
          <mxGeometry y="120" width="230" height="30" as="geometry" />
        </mxCell>
        <mxCell id="g0dB4fThE9D3y6vZpoi5-65" value="" style="shape=partialRectangle;connectable=0;fillColor=none;top=0;left=0;bottom=0;right=0;editable=1;overflow=hidden;" parent="g0dB4fThE9D3y6vZpoi5-64" vertex="1">
          <mxGeometry width="30" height="30" as="geometry">
            <mxRectangle width="30" height="30" as="alternateBounds" />
          </mxGeometry>
        </mxCell>
        <mxCell id="g0dB4fThE9D3y6vZpoi5-66" value="event_text" style="shape=partialRectangle;connectable=0;fillColor=none;top=0;left=0;bottom=0;right=0;align=left;spacingLeft=6;overflow=hidden;" parent="g0dB4fThE9D3y6vZpoi5-64" vertex="1">
          <mxGeometry x="30" width="200" height="30" as="geometry">
            <mxRectangle width="200" height="30" as="alternateBounds" />
          </mxGeometry>
        </mxCell>
        <mxCell id="g0dB4fThE9D3y6vZpoi5-175" value="group_id" style="shape=partialRectangle;fillColor=none;align=left;verticalAlign=middle;strokeColor=none;spacingLeft=34;rotatable=0;points=[[0,0.5],[1,0.5]];portConstraint=eastwest;dropTarget=0;" parent="gNVXbrv3SQmsqr1-LKS6-168" vertex="1">
          <mxGeometry x="40.55084745762713" y="220.00053231939162" width="180" height="42.09" as="geometry" />
        </mxCell>
        <mxCell id="g0dB4fThE9D3y6vZpoi5-176" value="FK" style="shape=partialRectangle;top=0;left=0;bottom=0;fillColor=none;stokeWidth=1;align=left;verticalAlign=middle;spacingLeft=4;spacingRight=4;overflow=hidden;rotatable=0;points=[];portConstraint=eastwest;part=1;" parent="g0dB4fThE9D3y6vZpoi5-175" vertex="1" connectable="0">
          <mxGeometry width="29.999999999999996" height="42.09" as="geometry" />
        </mxCell>
        <mxCell id="Y3lea-E6adA8FhGkdkL1-1" value="" style="edgeStyle=entityRelationEdgeStyle;fontSize=12;html=1;endArrow=ERoneToMany;rounded=0;entryX=1;entryY=0.75;entryDx=0;entryDy=0;exitX=0;exitY=0.5;exitDx=0;exitDy=0;" parent="gNVXbrv3SQmsqr1-LKS6-168" source="g0dB4fThE9D3y6vZpoi5-81" target="g0dB4fThE9D3y6vZpoi5-54" edge="1">
          <mxGeometry width="100" height="100" relative="1" as="geometry">
            <mxPoint x="350.42372881355936" y="580" as="sourcePoint" />
            <mxPoint x="450.42372881355936" y="480" as="targetPoint" />
          </mxGeometry>
        </mxCell>
        <mxCell id="2jKcjm-qkLe9Er315lRe-252" value="" style="edgeStyle=entityRelationEdgeStyle;fontSize=12;html=1;endArrow=ERmany;startArrow=ERmany;rounded=0;exitX=1.003;exitY=0.052;exitDx=0;exitDy=0;exitPerimeter=0;entryX=0;entryY=0.25;entryDx=0;entryDy=0;" parent="gNVXbrv3SQmsqr1-LKS6-169" source="2jKcjm-qkLe9Er315lRe-131" target="2jKcjm-qkLe9Er315lRe-118" edge="1">
          <mxGeometry width="100" height="100" relative="1" as="geometry">
            <mxPoint x="1135.4237288135594" y="2071.825095057034" as="sourcePoint" />
            <mxPoint x="986.7372881355932" y="1802.319391634981" as="targetPoint" />
          </mxGeometry>
        </mxCell>
        <mxCell id="2jKcjm-qkLe9Er315lRe-225" value="" style="group" parent="gNVXbrv3SQmsqr1-LKS6-169" connectable="0" vertex="1">
          <mxGeometry x="140" y="995.8922813688214" width="243.3050847457627" height="522.1673003802282" as="geometry" />
        </mxCell>
        <mxCell id="2jKcjm-qkLe9Er315lRe-226" value="" style="group" parent="2jKcjm-qkLe9Er315lRe-225" connectable="0" vertex="1">
          <mxGeometry width="243.3050847457627" height="522.1673003802282" as="geometry" />
        </mxCell>
        <mxCell id="2jKcjm-qkLe9Er315lRe-229" value="" style="group" parent="2jKcjm-qkLe9Er315lRe-226" connectable="0" vertex="1">
          <mxGeometry width="243.3050847457627" height="522.1673003802282" as="geometry" />
        </mxCell>
        <mxCell id="2jKcjm-qkLe9Er315lRe-131" value="people" style="shape=table;startSize=30;container=1;collapsible=1;childLayout=tableLayout;fixedRows=1;rowLines=0;fontStyle=1;align=center;resizeLast=1;" parent="2jKcjm-qkLe9Er315lRe-229" vertex="1">
          <mxGeometry width="240" height="370" as="geometry" />
        </mxCell>
        <mxCell id="2jKcjm-qkLe9Er315lRe-132" value="" style="shape=tableRow;horizontal=0;startSize=0;swimlaneHead=0;swimlaneBody=0;fillColor=none;collapsible=0;dropTarget=0;points=[[0,0.5],[1,0.5]];portConstraint=eastwest;top=0;left=0;right=0;bottom=1;" parent="2jKcjm-qkLe9Er315lRe-131" vertex="1">
          <mxGeometry y="30" width="240" height="30" as="geometry" />
        </mxCell>
        <mxCell id="2jKcjm-qkLe9Er315lRe-133" value="PK" style="shape=partialRectangle;connectable=0;fillColor=none;top=0;left=0;bottom=0;right=0;fontStyle=1;overflow=hidden;" parent="2jKcjm-qkLe9Er315lRe-132" vertex="1">
          <mxGeometry width="30" height="30" as="geometry">
            <mxRectangle width="30" height="30" as="alternateBounds" />
          </mxGeometry>
        </mxCell>
        <mxCell id="2jKcjm-qkLe9Er315lRe-134" value="id" style="shape=partialRectangle;connectable=0;fillColor=none;top=0;left=0;bottom=0;right=0;align=left;spacingLeft=6;fontStyle=5;overflow=hidden;" parent="2jKcjm-qkLe9Er315lRe-132" vertex="1">
          <mxGeometry x="30" width="210" height="30" as="geometry">
            <mxRectangle width="210" height="30" as="alternateBounds" />
          </mxGeometry>
        </mxCell>
        <mxCell id="2jKcjm-qkLe9Er315lRe-135" value="" style="shape=tableRow;horizontal=0;startSize=0;swimlaneHead=0;swimlaneBody=0;fillColor=none;collapsible=0;dropTarget=0;points=[[0,0.5],[1,0.5]];portConstraint=eastwest;top=0;left=0;right=0;bottom=0;" parent="2jKcjm-qkLe9Er315lRe-131" vertex="1">
          <mxGeometry y="60" width="240" height="30" as="geometry" />
        </mxCell>
        <mxCell id="2jKcjm-qkLe9Er315lRe-136" value="" style="shape=partialRectangle;connectable=0;fillColor=none;top=0;left=0;bottom=0;right=0;editable=1;overflow=hidden;" parent="2jKcjm-qkLe9Er315lRe-135" vertex="1">
          <mxGeometry width="30" height="30" as="geometry">
            <mxRectangle width="30" height="30" as="alternateBounds" />
          </mxGeometry>
        </mxCell>
        <mxCell id="2jKcjm-qkLe9Er315lRe-137" value="first_name" style="shape=partialRectangle;connectable=0;fillColor=none;top=0;left=0;bottom=0;right=0;align=left;spacingLeft=6;overflow=hidden;" parent="2jKcjm-qkLe9Er315lRe-135" vertex="1">
          <mxGeometry x="30" width="210" height="30" as="geometry">
            <mxRectangle width="210" height="30" as="alternateBounds" />
          </mxGeometry>
        </mxCell>
        <mxCell id="2jKcjm-qkLe9Er315lRe-138" value="" style="shape=tableRow;horizontal=0;startSize=0;swimlaneHead=0;swimlaneBody=0;fillColor=none;collapsible=0;dropTarget=0;points=[[0,0.5],[1,0.5]];portConstraint=eastwest;top=0;left=0;right=0;bottom=0;" parent="2jKcjm-qkLe9Er315lRe-131" vertex="1">
          <mxGeometry y="90" width="240" height="30" as="geometry" />
        </mxCell>
        <mxCell id="2jKcjm-qkLe9Er315lRe-139" value="" style="shape=partialRectangle;connectable=0;fillColor=none;top=0;left=0;bottom=0;right=0;editable=1;overflow=hidden;" parent="2jKcjm-qkLe9Er315lRe-138" vertex="1">
          <mxGeometry width="30" height="30" as="geometry">
            <mxRectangle width="30" height="30" as="alternateBounds" />
          </mxGeometry>
        </mxCell>
        <mxCell id="2jKcjm-qkLe9Er315lRe-140" value="last_name" style="shape=partialRectangle;connectable=0;fillColor=none;top=0;left=0;bottom=0;right=0;align=left;spacingLeft=6;overflow=hidden;" parent="2jKcjm-qkLe9Er315lRe-138" vertex="1">
          <mxGeometry x="30" width="210" height="30" as="geometry">
            <mxRectangle width="210" height="30" as="alternateBounds" />
          </mxGeometry>
        </mxCell>
        <mxCell id="2jKcjm-qkLe9Er315lRe-141" value="" style="shape=tableRow;horizontal=0;startSize=0;swimlaneHead=0;swimlaneBody=0;fillColor=none;collapsible=0;dropTarget=0;points=[[0,0.5],[1,0.5]];portConstraint=eastwest;top=0;left=0;right=0;bottom=0;" parent="2jKcjm-qkLe9Er315lRe-131" vertex="1">
          <mxGeometry y="120" width="240" height="50" as="geometry" />
        </mxCell>
        <mxCell id="2jKcjm-qkLe9Er315lRe-142" value="" style="shape=partialRectangle;connectable=0;fillColor=none;top=0;left=0;bottom=0;right=0;editable=1;overflow=hidden;" parent="2jKcjm-qkLe9Er315lRe-141" vertex="1">
          <mxGeometry width="30" height="50" as="geometry">
            <mxRectangle width="30" height="50" as="alternateBounds" />
          </mxGeometry>
        </mxCell>
        <mxCell id="2jKcjm-qkLe9Er315lRe-143" value="patronym" style="shape=partialRectangle;connectable=0;fillColor=none;top=0;left=0;bottom=0;right=0;align=left;spacingLeft=6;overflow=hidden;" parent="2jKcjm-qkLe9Er315lRe-141" vertex="1">
          <mxGeometry x="30" width="210" height="50" as="geometry">
            <mxRectangle width="210" height="50" as="alternateBounds" />
          </mxGeometry>
        </mxCell>
        <mxCell id="2jKcjm-qkLe9Er315lRe-144" value="position" style="shape=partialRectangle;fillColor=none;align=left;verticalAlign=middle;strokeColor=none;spacingLeft=34;rotatable=0;points=[[0,0.5],[1,0.5]];portConstraint=eastwest;dropTarget=0;" parent="2jKcjm-qkLe9Er315lRe-229" vertex="1">
          <mxGeometry y="166.2" width="90" height="44.21" as="geometry" />
        </mxCell>
        <mxCell id="2jKcjm-qkLe9Er315lRe-145" value="" style="shape=partialRectangle;top=0;left=0;bottom=0;fillColor=none;stokeWidth=1;align=left;verticalAlign=middle;spacingLeft=4;spacingRight=4;overflow=hidden;rotatable=0;points=[];portConstraint=eastwest;part=1;" parent="2jKcjm-qkLe9Er315lRe-144" connectable="0" vertex="1">
          <mxGeometry width="29.999999999999996" height="44.21" as="geometry" />
        </mxCell>
        <mxCell id="2jKcjm-qkLe9Er315lRe-146" value="email" style="shape=partialRectangle;fillColor=none;align=left;verticalAlign=middle;strokeColor=none;spacingLeft=34;rotatable=0;points=[[0,0.5],[1,0.5]];portConstraint=eastwest;dropTarget=0;" parent="2jKcjm-qkLe9Er315lRe-229" vertex="1">
          <mxGeometry y="210" width="90" height="58.43" as="geometry" />
        </mxCell>
        <mxCell id="2jKcjm-qkLe9Er315lRe-147" value="" style="shape=partialRectangle;top=0;left=0;bottom=0;fillColor=none;stokeWidth=1;align=left;verticalAlign=middle;spacingLeft=4;spacingRight=4;overflow=hidden;rotatable=0;points=[];portConstraint=eastwest;part=1;" parent="2jKcjm-qkLe9Er315lRe-146" connectable="0" vertex="1">
          <mxGeometry width="29.999999999999996" height="58.43" as="geometry" />
        </mxCell>
        <mxCell id="2jKcjm-qkLe9Er315lRe-148" value="phone" style="shape=partialRectangle;fillColor=none;align=left;verticalAlign=middle;strokeColor=none;spacingLeft=34;rotatable=0;points=[[0,0.5],[1,0.5]];portConstraint=eastwest;dropTarget=0;" parent="2jKcjm-qkLe9Er315lRe-229" vertex="1">
          <mxGeometry y="270" width="90" height="42.65" as="geometry" />
        </mxCell>
        <mxCell id="2jKcjm-qkLe9Er315lRe-149" value="" style="shape=partialRectangle;top=0;left=0;bottom=0;fillColor=none;stokeWidth=1;align=left;verticalAlign=middle;spacingLeft=4;spacingRight=4;overflow=hidden;rotatable=0;points=[];portConstraint=eastwest;part=1;" parent="2jKcjm-qkLe9Er315lRe-148" connectable="0" vertex="1">
          <mxGeometry width="29.999999999999996" height="42.65" as="geometry" />
        </mxCell>
        <mxCell id="2jKcjm-qkLe9Er315lRe-150" value="link" style="shape=partialRectangle;fillColor=none;align=left;verticalAlign=middle;strokeColor=none;spacingLeft=34;rotatable=0;points=[[0,0.5],[1,0.5]];portConstraint=eastwest;dropTarget=0;" parent="2jKcjm-qkLe9Er315lRe-229" vertex="1">
          <mxGeometry y="312.65" width="90" height="50.67" as="geometry" />
        </mxCell>
        <mxCell id="2jKcjm-qkLe9Er315lRe-151" value="" style="shape=partialRectangle;top=0;left=0;bottom=0;fillColor=none;stokeWidth=1;align=left;verticalAlign=middle;spacingLeft=4;spacingRight=4;overflow=hidden;rotatable=0;points=[];portConstraint=eastwest;part=1;" parent="2jKcjm-qkLe9Er315lRe-150" connectable="0" vertex="1">
          <mxGeometry width="29.999999999999996" height="50.67" as="geometry" />
        </mxCell>
      </root>
    </mxGraphModel>
  </diagram>
</mxfile>
